<?xml version="1.0" encoding="UTF-8" standalone="no"?>
<!DOCTYPE svg PUBLIC "-//W3C//DTD SVG 1.1//EN"
 "http://www.w3.org/Graphics/SVG/1.1/DTD/svg11.dtd">
<!-- Generated by graphviz version 2.40.1 (0)
 -->
<!-- Title: %3 Pages: 1 -->
<svg width="504pt" height="836pt"
 viewBox="0.00 0.00 503.60 836.00" xmlns="http://www.w3.org/2000/svg" xmlns:xlink="http://www.w3.org/1999/xlink">
<g id="graph0" class="graph" transform="scale(1 1) rotate(0) translate(4 832)">
<title>%3</title>
<polygon fill="#ffffff" stroke="transparent" points="-4,4 -4,-832 499.5975,-832 499.5975,4 -4,4"/>
<!-- 10 -->
<g id="node1" class="node">
<title>10</title>
<ellipse fill="#ff0000" stroke="#000000" cx="467" cy="-18" rx="27" ry="18"/>
<text text-anchor="middle" x="467" y="-14.3" font-family="Times,serif" font-size="14.00" fill="#000000">10</text>
</g>
<!-- 12 -->
<g id="node2" class="node">
<title>12</title>
<ellipse fill="#ff0000" stroke="#000000" cx="136" cy="-594" rx="27" ry="18"/>
<text text-anchor="middle" x="136" y="-590.3" font-family="Times,serif" font-size="14.00" fill="#000000">12</text>
</g>
<!-- 13 -->
<g id="node3" class="node">
<title>13</title>
<ellipse fill="#ff0000" stroke="#000000" cx="27" cy="-738" rx="27" ry="18"/>
<text text-anchor="middle" x="27" y="-734.3" font-family="Times,serif" font-size="14.00" fill="#000000">13</text>
</g>
<!-- 20 -->
<g id="node4" class="node">
<title>20</title>
<ellipse fill="#ff0000" stroke="#000000" cx="244" cy="-450" rx="27" ry="18"/>
<text text-anchor="middle" x="244" y="-446.3" font-family="Times,serif" font-size="14.00" fill="#000000">20</text>
</g>
<!-- 21 -->
<g id="node5" class="node">
<title>21</title>
<ellipse fill="#ff0000" stroke="#000000" cx="208" cy="-594" rx="27" ry="18"/>
<text text-anchor="middle" x="208" y="-590.3" font-family="Times,serif" font-size="14.00" fill="#000000">21</text>
</g>
<!-- 23 -->
<g id="node6" class="node">
<title>23</title>
<ellipse fill="#ff0000" stroke="#000000" cx="99" cy="-738" rx="27" ry="18"/>
<text text-anchor="middle" x="99" y="-734.3" font-family="Times,serif" font-size="14.00" fill="#000000">23</text>
</g>
<!-- 112 -->
<g id="node7" class="node">
<title>112</title>
<ellipse fill="#ff0000" stroke="#000000" cx="204" cy="-378" rx="28.6953" ry="18"/>
<text text-anchor="middle" x="204" y="-374.3" font-family="Times,serif" font-size="14.00" fill="#000000">112</text>
</g>
<!-- 113 -->
<g id="node8" class="node">
<title>113</title>
<ellipse fill="#ff0000" stroke="#000000" cx="279" cy="-378" rx="28.6953" ry="18"/>
<text text-anchor="middle" x="279" y="-374.3" font-family="Times,serif" font-size="14.00" fill="#000000">113</text>
</g>
<!-- 121 -->
<g id="node9" class="node">
<title>121</title>
<ellipse fill="#ff0000" stroke="#000000" cx="354" cy="-378" rx="28.6953" ry="18"/>
<text text-anchor="middle" x="354" y="-374.3" font-family="Times,serif" font-size="14.00" fill="#000000">121</text>
</g>
<!-- 123 -->
<g id="node10" class="node">
<title>123</title>
<ellipse fill="#ff0000" stroke="#000000" cx="133" cy="-666" rx="28.6953" ry="18"/>
<text text-anchor="middle" x="133" y="-662.3" font-family="Times,serif" font-size="14.00" fill="#000000">123</text>
</g>
<!-- 1 -->
<g id="node11" class="node">
<title>1</title>
<ellipse fill="none" stroke="#000000" cx="429" cy="-162" rx="27" ry="18"/>
<text text-anchor="middle" x="429" y="-158.3" font-family="Times,serif" font-size="14.00" fill="#000000">1</text>
</g>
<!-- 102 -->
<g id="node12" class="node">
<title>102</title>
<ellipse fill="none" stroke="#000000" cx="392" cy="-90" rx="28.6953" ry="18"/>
<text text-anchor="middle" x="392" y="-86.3" font-family="Times,serif" font-size="14.00" fill="#000000">102</text>
</g>
<!-- 1&#45;&gt;102 -->
<g id="edge1" class="edge">
<title>1&#45;&gt;102</title>
<path fill="none" stroke="#000000" d="M420.2315,-144.937C415.8721,-136.4537 410.5047,-126.0092 405.6247,-116.513"/>
<polygon fill="#000000" stroke="#000000" points="408.6463,-114.7352 400.9626,-107.4407 402.4203,-117.9348 408.6463,-114.7352"/>
</g>
<!-- 111 -->
<g id="node13" class="node">
<title>111</title>
<ellipse fill="none" stroke="#000000" cx="467" cy="-90" rx="28.6953" ry="18"/>
<text text-anchor="middle" x="467" y="-86.3" font-family="Times,serif" font-size="14.00" fill="#000000">111</text>
</g>
<!-- 1&#45;&gt;111 -->
<g id="edge2" class="edge">
<title>1&#45;&gt;111</title>
<path fill="none" stroke="#000000" d="M438.0055,-144.937C442.4828,-136.4537 447.9952,-126.0092 453.007,-116.513"/>
<polygon fill="#000000" stroke="#000000" points="456.2229,-117.9182 457.7952,-107.4407 450.0322,-114.6509 456.2229,-117.9182"/>
</g>
<!-- 0 -->
<g id="node22" class="node">
<title>0</title>
<ellipse fill="none" stroke="#000000" cx="392" cy="-18" rx="27" ry="18"/>
<text text-anchor="middle" x="392" y="-14.3" font-family="Times,serif" font-size="14.00" fill="#000000">0</text>
</g>
<!-- 102&#45;&gt;0 -->
<g id="edge11" class="edge">
<title>102&#45;&gt;0</title>
<path fill="none" stroke="#000000" d="M392,-71.8314C392,-64.131 392,-54.9743 392,-46.4166"/>
<polygon fill="#000000" stroke="#000000" points="395.5001,-46.4132 392,-36.4133 388.5001,-46.4133 395.5001,-46.4132"/>
</g>
<!-- 111&#45;&gt;10 -->
<g id="edge13" class="edge">
<title>111&#45;&gt;10</title>
<path fill="none" stroke="#000000" d="M467,-71.8314C467,-64.131 467,-54.9743 467,-46.4166"/>
<polygon fill="#000000" stroke="#000000" points="470.5001,-46.4132 467,-36.4133 463.5001,-46.4133 470.5001,-46.4132"/>
</g>
<!-- 2 -->
<g id="node14" class="node">
<title>2</title>
<ellipse fill="none" stroke="#000000" cx="429" cy="-306" rx="27" ry="18"/>
<text text-anchor="middle" x="429" y="-302.3" font-family="Times,serif" font-size="14.00" fill="#000000">2</text>
</g>
<!-- 103 -->
<g id="node15" class="node">
<title>103</title>
<ellipse fill="none" stroke="#000000" cx="429" cy="-234" rx="28.6953" ry="18"/>
<text text-anchor="middle" x="429" y="-230.3" font-family="Times,serif" font-size="14.00" fill="#000000">103</text>
</g>
<!-- 2&#45;&gt;103 -->
<g id="edge3" class="edge">
<title>2&#45;&gt;103</title>
<path fill="none" stroke="#000000" d="M429,-287.8314C429,-280.131 429,-270.9743 429,-262.4166"/>
<polygon fill="#000000" stroke="#000000" points="432.5001,-262.4132 429,-252.4133 425.5001,-262.4133 432.5001,-262.4132"/>
</g>
<!-- 103&#45;&gt;1 -->
<g id="edge12" class="edge">
<title>103&#45;&gt;1</title>
<path fill="none" stroke="#000000" d="M429,-215.8314C429,-208.131 429,-198.9743 429,-190.4166"/>
<polygon fill="#000000" stroke="#000000" points="432.5001,-190.4132 429,-180.4133 425.5001,-190.4133 432.5001,-190.4132"/>
</g>
<!-- 11 -->
<g id="node16" class="node">
<title>11</title>
<ellipse fill="none" stroke="#000000" cx="316" cy="-450" rx="27" ry="18"/>
<text text-anchor="middle" x="316" y="-446.3" font-family="Times,serif" font-size="14.00" fill="#000000">11</text>
</g>
<!-- 11&#45;&gt;112 -->
<g id="edge4" class="edge">
<title>11&#45;&gt;112</title>
<path fill="none" stroke="#000000" d="M296.4911,-437.4586C278.8025,-426.0873 252.5105,-409.1853 232.475,-396.3053"/>
<polygon fill="#000000" stroke="#000000" points="234.344,-393.346 224.0395,-390.8825 230.5586,-399.2343 234.344,-393.346"/>
</g>
<!-- 11&#45;&gt;113 -->
<g id="edge5" class="edge">
<title>11&#45;&gt;113</title>
<path fill="none" stroke="#000000" d="M307.2315,-432.937C302.8721,-424.4537 297.5047,-414.0092 292.6247,-404.513"/>
<polygon fill="#000000" stroke="#000000" points="295.6463,-402.7352 287.9626,-395.4407 289.4203,-405.9348 295.6463,-402.7352"/>
</g>
<!-- 11&#45;&gt;121 -->
<g id="edge6" class="edge">
<title>11&#45;&gt;121</title>
<path fill="none" stroke="#000000" d="M325.0055,-432.937C329.4828,-424.4537 334.9952,-414.0092 340.007,-404.513"/>
<polygon fill="#000000" stroke="#000000" points="343.2229,-405.9182 344.7952,-395.4407 337.0322,-402.6509 343.2229,-405.9182"/>
</g>
<!-- 122 -->
<g id="node17" class="node">
<title>122</title>
<ellipse fill="none" stroke="#000000" cx="429" cy="-378" rx="28.6953" ry="18"/>
<text text-anchor="middle" x="429" y="-374.3" font-family="Times,serif" font-size="14.00" fill="#000000">122</text>
</g>
<!-- 11&#45;&gt;122 -->
<g id="edge7" class="edge">
<title>11&#45;&gt;122</title>
<path fill="none" stroke="#000000" d="M335.6831,-437.4586C353.5296,-426.0873 380.0564,-409.1853 400.2708,-396.3053"/>
<polygon fill="#000000" stroke="#000000" points="402.2288,-399.2079 408.7816,-390.8825 398.4672,-393.3044 402.2288,-399.2079"/>
</g>
<!-- 122&#45;&gt;2 -->
<g id="edge14" class="edge">
<title>122&#45;&gt;2</title>
<path fill="none" stroke="#000000" d="M429,-359.8314C429,-352.131 429,-342.9743 429,-334.4166"/>
<polygon fill="#000000" stroke="#000000" points="432.5001,-334.4132 429,-324.4133 425.5001,-334.4133 432.5001,-334.4132"/>
</g>
<!-- 22 -->
<g id="node18" class="node">
<title>22</title>
<ellipse fill="none" stroke="#000000" cx="171" cy="-738" rx="27" ry="18"/>
<text text-anchor="middle" x="171" y="-734.3" font-family="Times,serif" font-size="14.00" fill="#000000">22</text>
</g>
<!-- 22&#45;&gt;123 -->
<g id="edge8" class="edge">
<title>22&#45;&gt;123</title>
<path fill="none" stroke="#000000" d="M161.9945,-720.937C157.5172,-712.4537 152.0048,-702.0092 146.993,-692.513"/>
<polygon fill="#000000" stroke="#000000" points="149.9678,-690.6509 142.2048,-683.4407 143.7771,-693.9182 149.9678,-690.6509"/>
</g>
<!-- 132 -->
<g id="node19" class="node">
<title>132</title>
<ellipse fill="none" stroke="#000000" cx="208" cy="-666" rx="28.6953" ry="18"/>
<text text-anchor="middle" x="208" y="-662.3" font-family="Times,serif" font-size="14.00" fill="#000000">132</text>
</g>
<!-- 22&#45;&gt;132 -->
<g id="edge9" class="edge">
<title>22&#45;&gt;132</title>
<path fill="none" stroke="#000000" d="M179.7685,-720.937C184.1279,-712.4537 189.4953,-702.0092 194.3753,-692.513"/>
<polygon fill="#000000" stroke="#000000" points="197.5797,-693.9348 199.0374,-683.4407 191.3537,-690.7352 197.5797,-693.9348"/>
</g>
<!-- 132&#45;&gt;12 -->
<g id="edge17" class="edge">
<title>132&#45;&gt;12</title>
<path fill="none" stroke="#000000" d="M192.7307,-650.7307C182.803,-640.803 169.6847,-627.6847 158.5637,-616.5637"/>
<polygon fill="#000000" stroke="#000000" points="160.7933,-613.8436 151.2473,-609.2473 155.8436,-618.7933 160.7933,-613.8436"/>
</g>
<!-- 132&#45;&gt;21 -->
<g id="edge18" class="edge">
<title>132&#45;&gt;21</title>
<path fill="none" stroke="#000000" d="M208,-647.8314C208,-640.131 208,-630.9743 208,-622.4166"/>
<polygon fill="#000000" stroke="#000000" points="211.5001,-622.4132 208,-612.4133 204.5001,-622.4133 211.5001,-622.4132"/>
</g>
<!-- 30 -->
<g id="node20" class="node">
<title>30</title>
<ellipse fill="none" stroke="#000000" cx="280" cy="-594" rx="27" ry="18"/>
<text text-anchor="middle" x="280" y="-590.3" font-family="Times,serif" font-size="14.00" fill="#000000">30</text>
</g>
<!-- 132&#45;&gt;30 -->
<g id="edge19" class="edge">
<title>132&#45;&gt;30</title>
<path fill="none" stroke="#000000" d="M223.2693,-650.7307C233.197,-640.803 246.3153,-627.6847 257.4363,-616.5637"/>
<polygon fill="#000000" stroke="#000000" points="260.1564,-618.7933 264.7527,-609.2473 255.2067,-613.8436 260.1564,-618.7933"/>
</g>
<!-- 131 -->
<g id="node21" class="node">
<title>131</title>
<ellipse fill="none" stroke="#000000" cx="280" cy="-522" rx="28.6953" ry="18"/>
<text text-anchor="middle" x="280" y="-518.3" font-family="Times,serif" font-size="14.00" fill="#000000">131</text>
</g>
<!-- 30&#45;&gt;131 -->
<g id="edge10" class="edge">
<title>30&#45;&gt;131</title>
<path fill="none" stroke="#000000" d="M280,-575.8314C280,-568.131 280,-558.9743 280,-550.4166"/>
<polygon fill="#000000" stroke="#000000" points="283.5001,-550.4132 280,-540.4133 276.5001,-550.4133 283.5001,-550.4132"/>
</g>
<!-- 131&#45;&gt;20 -->
<g id="edge16" class="edge">
<title>131&#45;&gt;20</title>
<path fill="none" stroke="#000000" d="M271.2854,-504.5708C267.0403,-496.0807 261.8464,-485.6929 257.1337,-476.2674"/>
<polygon fill="#000000" stroke="#000000" points="260.237,-474.6477 252.6343,-467.2687 253.976,-477.7782 260.237,-474.6477"/>
</g>
<!-- 131&#45;&gt;11 -->
<g id="edge15" class="edge">
<title>131&#45;&gt;11</title>
<path fill="none" stroke="#000000" d="M288.7146,-504.5708C292.9597,-496.0807 298.1536,-485.6929 302.8663,-476.2674"/>
<polygon fill="#000000" stroke="#000000" points="306.024,-477.7782 307.3657,-467.2687 299.763,-474.6477 306.024,-477.7782"/>
</g>
<!-- 133 -->
<g id="node23" class="node">
<title>133</title>
<ellipse fill="none" stroke="#000000" cx="171" cy="-810" rx="28.6953" ry="18"/>
<text text-anchor="middle" x="171" y="-806.3" font-family="Times,serif" font-size="14.00" fill="#000000">133</text>
</g>
<!-- 133&#45;&gt;13 -->
<g id="edge20" class="edge">
<title>133&#45;&gt;13</title>
<path fill="none" stroke="#000000" d="M148.5,-798.75C124.159,-786.5795 85.1886,-767.0943 57.9662,-753.4831"/>
<polygon fill="#000000" stroke="#000000" points="59.38,-750.2769 48.8705,-748.9353 56.2495,-756.5379 59.38,-750.2769"/>
</g>
<!-- 133&#45;&gt;23 -->
<g id="edge22" class="edge">
<title>133&#45;&gt;23</title>
<path fill="none" stroke="#000000" d="M155.7307,-794.7307C145.803,-784.803 132.6847,-771.6847 121.5637,-760.5637"/>
<polygon fill="#000000" stroke="#000000" points="123.7933,-757.8436 114.2473,-753.2473 118.8436,-762.7933 123.7933,-757.8436"/>
</g>
<!-- 133&#45;&gt;22 -->
<g id="edge21" class="edge">
<title>133&#45;&gt;22</title>
<path fill="none" stroke="#000000" d="M171,-791.8314C171,-784.131 171,-774.9743 171,-766.4166"/>
<polygon fill="#000000" stroke="#000000" points="174.5001,-766.4132 171,-756.4133 167.5001,-766.4133 174.5001,-766.4132"/>
</g>
<!-- 31 -->
<g id="node24" class="node">
<title>31</title>
<ellipse fill="none" stroke="#000000" cx="243" cy="-738" rx="27" ry="18"/>
<text text-anchor="middle" x="243" y="-734.3" font-family="Times,serif" font-size="14.00" fill="#000000">31</text>
</g>
<!-- 133&#45;&gt;31 -->
<g id="edge23" class="edge">
<title>133&#45;&gt;31</title>
<path fill="none" stroke="#000000" d="M186.2693,-794.7307C196.197,-784.803 209.3153,-771.6847 220.4363,-760.5637"/>
<polygon fill="#000000" stroke="#000000" points="223.1564,-762.7933 227.7527,-753.2473 218.2067,-757.8436 223.1564,-762.7933"/>
</g>
<!-- 32 -->
<g id="node25" class="node">
<title>32</title>
<ellipse fill="none" stroke="#000000" cx="315" cy="-738" rx="27" ry="18"/>
<text text-anchor="middle" x="315" y="-734.3" font-family="Times,serif" font-size="14.00" fill="#000000">32</text>
</g>
<!-- 133&#45;&gt;32 -->
<g id="edge24" class="edge">
<title>133&#45;&gt;32</title>
<path fill="none" stroke="#000000" d="M193.5,-798.75C217.841,-786.5795 256.8114,-767.0943 284.0338,-753.4831"/>
<polygon fill="#000000" stroke="#000000" points="285.7505,-756.5379 293.1295,-748.9353 282.62,-750.2769 285.7505,-756.5379"/>
</g>
</g>
</svg>
