<?xml version="1.0" encoding="UTF-8" standalone="no"?>
<!DOCTYPE svg PUBLIC "-//W3C//DTD SVG 1.1//EN"
 "http://www.w3.org/Graphics/SVG/1.1/DTD/svg11.dtd">
<!-- Generated by graphviz version 2.40.1 (0)
 -->
<!-- Title: %3 Pages: 1 -->
<svg width="559pt" height="1151pt"
 viewBox="0.00 0.00 558.89 1151.00" xmlns="http://www.w3.org/2000/svg" xmlns:xlink="http://www.w3.org/1999/xlink">
<g id="graph0" class="graph" transform="scale(1 1) rotate(0) translate(4 1147)">
<title>%3</title>
<polygon fill="#ffffff" stroke="transparent" points="-4,4 -4,-1147 554.8927,-1147 554.8927,4 -4,4"/>
<!-- 0 -->
<g id="node1" class="node">
<title>0</title>
<ellipse fill="none" stroke="#000000" cx="240.9464" cy="-126" rx="40.8928" ry="18"/>
<text text-anchor="middle" x="240.9464" y="-122.3" font-family="Times,serif" font-size="14.00" fill="#000000">(3,3,0)</text>
</g>
<!-- 17 -->
<g id="node15" class="node">
<title>17</title>
<ellipse fill="none" stroke="#000000" cx="40.9464" cy="-18" rx="40.8928" ry="18"/>
<text text-anchor="middle" x="40.9464" y="-14.3" font-family="Times,serif" font-size="14.00" fill="#000000">(0,1,1)</text>
</g>
<!-- 0&#45;&gt;17 -->
<g id="edge1" class="edge">
<title>0&#45;&gt;17</title>
<path fill="none" stroke="#000000" d="M208.2172,-114.9196C190.5651,-108.4834 168.6309,-99.7329 149.9464,-90 121.661,-75.2659 91.5603,-54.9933 70.1737,-39.7129"/>
<polygon fill="#000000" stroke="#000000" points="72.0142,-36.7249 61.8577,-33.7089 67.9166,-42.4003 72.0142,-36.7249"/>
<text text-anchor="middle" x="161.4464" y="-68.3" font-family="Times,serif" font-size="14.00" fill="#000000">0,1</text>
</g>
<!-- 18 -->
<g id="node16" class="node">
<title>18</title>
<ellipse fill="none" stroke="#000000" cx="398.9464" cy="-18" rx="40.8928" ry="18"/>
<text text-anchor="middle" x="398.9464" y="-14.3" font-family="Times,serif" font-size="14.00" fill="#000000">(0,2,1)</text>
</g>
<!-- 0&#45;&gt;18 -->
<g id="edge2" class="edge">
<title>0&#45;&gt;18</title>
<path fill="none" stroke="#000000" d="M260.6767,-110.1258C279.7453,-95.0451 309.6731,-72.0556 336.9464,-54 345.6644,-48.2285 355.3365,-42.3685 364.3979,-37.0996"/>
<polygon fill="#000000" stroke="#000000" points="366.2644,-40.0639 373.1979,-32.0528 362.7819,-33.9916 366.2644,-40.0639"/>
<text text-anchor="middle" x="348.4464" y="-68.3" font-family="Times,serif" font-size="14.00" fill="#000000">0,2</text>
</g>
<!-- 20 -->
<g id="node18" class="node">
<title>20</title>
<ellipse fill="#ff0000" stroke="#000000" cx="140.9464" cy="-18" rx="40.8928" ry="18"/>
<text text-anchor="middle" x="140.9464" y="-14.3" font-family="Times,serif" font-size="14.00" fill="#000000">(1,0,1)</text>
</g>
<!-- 0&#45;&gt;20 -->
<g id="edge3" class="edge">
<title>0&#45;&gt;20</title>
<path fill="none" stroke="#000000" d="M225.3214,-109.125C208.6629,-91.1339 182.1377,-62.4866 163.2779,-42.1181"/>
<polygon fill="#000000" stroke="#000000" points="165.8239,-39.7162 156.4616,-34.7565 160.6876,-44.4721 165.8239,-39.7162"/>
<text text-anchor="middle" x="216.4464" y="-68.3" font-family="Times,serif" font-size="14.00" fill="#000000">1,0</text>
</g>
<!-- 24 -->
<g id="node22" class="node">
<title>24</title>
<ellipse fill="#ff0000" stroke="#000000" cx="240.9464" cy="-18" rx="40.8928" ry="18"/>
<text text-anchor="middle" x="240.9464" y="-14.3" font-family="Times,serif" font-size="14.00" fill="#000000">(2,0,1)</text>
</g>
<!-- 0&#45;&gt;24 -->
<g id="edge4" class="edge">
<title>0&#45;&gt;24</title>
<path fill="none" stroke="#000000" d="M240.9464,-107.6793C240.9464,-90.821 240.9464,-65.5651 240.9464,-46.147"/>
<polygon fill="#000000" stroke="#000000" points="244.4465,-46.0501 240.9464,-36.0502 237.4465,-46.0502 244.4465,-46.0501"/>
<text text-anchor="middle" x="252.4464" y="-68.3" font-family="Times,serif" font-size="14.00" fill="#000000">2,0</text>
</g>
<!-- 1 -->
<g id="node2" class="node">
<title>1</title>
<ellipse fill="none" stroke="#000000" cx="240.9464" cy="-300" rx="40.8928" ry="18"/>
<text text-anchor="middle" x="240.9464" y="-296.3" font-family="Times,serif" font-size="14.00" fill="#000000">(3,2,0)</text>
</g>
<!-- 1&#45;&gt;18 -->
<g id="edge5" class="edge">
<title>1&#45;&gt;18</title>
<path fill="none" stroke="#000000" d="M269.4549,-286.8316C324.9073,-259.4168 445.9638,-190.3096 492.9464,-90 499.7329,-75.5106 502.014,-67.1825 492.9464,-54 486.9189,-45.2372 465.3717,-36.6685 444.4261,-30.0905"/>
<polygon fill="#000000" stroke="#000000" points="445.1686,-26.6588 434.5839,-27.1221 443.1473,-33.3606 445.1686,-26.6588"/>
<text text-anchor="middle" x="454.4464" y="-165.8" font-family="Times,serif" font-size="14.00" fill="#000000">0,1</text>
</g>
<!-- 21 -->
<g id="node19" class="node">
<title>21</title>
<ellipse fill="none" stroke="#000000" cx="240.9464" cy="-213" rx="40.8928" ry="18"/>
<text text-anchor="middle" x="240.9464" y="-209.3" font-family="Times,serif" font-size="14.00" fill="#000000">(1,1,1)</text>
</g>
<!-- 1&#45;&gt;21 -->
<g id="edge6" class="edge">
<title>1&#45;&gt;21</title>
<path fill="none" stroke="#000000" d="M240.9464,-281.9735C240.9464,-270.1918 240.9464,-254.5607 240.9464,-241.1581"/>
<polygon fill="#000000" stroke="#000000" points="244.4465,-241.0033 240.9464,-231.0034 237.4465,-241.0034 244.4465,-241.0033"/>
<text text-anchor="middle" x="252.4464" y="-252.8" font-family="Times,serif" font-size="14.00" fill="#000000">1,0</text>
</g>
<!-- 2 -->
<g id="node3" class="node">
<title>2</title>
<ellipse fill="none" stroke="#000000" cx="458.9464" cy="-474" rx="40.8928" ry="18"/>
<text text-anchor="middle" x="458.9464" y="-470.3" font-family="Times,serif" font-size="14.00" fill="#000000">(3,1,0)</text>
</g>
<!-- 19 -->
<g id="node17" class="node">
<title>19</title>
<ellipse fill="none" stroke="#000000" cx="378.9464" cy="-387" rx="40.8928" ry="18"/>
<text text-anchor="middle" x="378.9464" y="-383.3" font-family="Times,serif" font-size="14.00" fill="#000000">(0,3,1)</text>
</g>
<!-- 2&#45;&gt;19 -->
<g id="edge7" class="edge">
<title>2&#45;&gt;19</title>
<path fill="none" stroke="#000000" d="M443.5216,-457.2255C431.5688,-444.2269 414.8362,-426.0302 401.3988,-411.417"/>
<polygon fill="#000000" stroke="#000000" points="403.6689,-408.7149 394.3238,-403.723 398.5162,-413.4531 403.6689,-408.7149"/>
<text text-anchor="middle" x="434.4464" y="-426.8" font-family="Times,serif" font-size="14.00" fill="#000000">0,1</text>
</g>
<!-- 4 -->
<g id="node4" class="node">
<title>4</title>
<ellipse fill="#ff0000" stroke="#000000" cx="450.9464" cy="-72" rx="40.8928" ry="18"/>
<text text-anchor="middle" x="450.9464" y="-68.3" font-family="Times,serif" font-size="14.00" fill="#000000">(2,3,0)</text>
</g>
<!-- 5 -->
<g id="node5" class="node">
<title>5</title>
<ellipse fill="none" stroke="#000000" cx="302.9464" cy="-648" rx="40.8928" ry="18"/>
<text text-anchor="middle" x="302.9464" y="-644.3" font-family="Times,serif" font-size="14.00" fill="#000000">(2,2,0)</text>
</g>
<!-- 22 -->
<g id="node20" class="node">
<title>22</title>
<ellipse fill="#ff0000" stroke="#000000" cx="309.9464" cy="-561" rx="40.8928" ry="18"/>
<text text-anchor="middle" x="309.9464" y="-557.3" font-family="Times,serif" font-size="14.00" fill="#000000">(1,2,1)</text>
</g>
<!-- 5&#45;&gt;22 -->
<g id="edge8" class="edge">
<title>5&#45;&gt;22</title>
<path fill="none" stroke="#000000" d="M304.3968,-629.9735C305.3447,-618.1918 306.6024,-602.5607 307.6808,-589.1581"/>
<polygon fill="#000000" stroke="#000000" points="311.1844,-589.2519 308.4978,-579.0034 304.207,-588.6904 311.1844,-589.2519"/>
<text text-anchor="middle" x="317.4464" y="-600.8" font-family="Times,serif" font-size="14.00" fill="#000000">0,1</text>
</g>
<!-- 23 -->
<g id="node21" class="node">
<title>23</title>
<ellipse fill="#ff0000" stroke="#000000" cx="409.9464" cy="-561" rx="40.8928" ry="18"/>
<text text-anchor="middle" x="409.9464" y="-557.3" font-family="Times,serif" font-size="14.00" fill="#000000">(1,3,1)</text>
</g>
<!-- 5&#45;&gt;23 -->
<g id="edge9" class="edge">
<title>5&#45;&gt;23</title>
<path fill="none" stroke="#000000" d="M318.5753,-631.0605C328.5238,-620.6969 341.9427,-607.4646 354.9464,-597 361.784,-591.4975 369.477,-586.0521 376.8945,-581.1261"/>
<polygon fill="#000000" stroke="#000000" points="378.9188,-583.985 385.4076,-575.6096 375.1121,-578.1105 378.9188,-583.985"/>
<text text-anchor="middle" x="366.4464" y="-600.8" font-family="Times,serif" font-size="14.00" fill="#000000">0,2</text>
</g>
<!-- 25 -->
<g id="node23" class="node">
<title>25</title>
<ellipse fill="#ff0000" stroke="#000000" cx="240.9464" cy="-387" rx="40.8928" ry="18"/>
<text text-anchor="middle" x="240.9464" y="-383.3" font-family="Times,serif" font-size="14.00" fill="#000000">(2,1,1)</text>
</g>
<!-- 5&#45;&gt;25 -->
<g id="edge10" class="edge">
<title>5&#45;&gt;25</title>
<path fill="none" stroke="#000000" d="M289.2162,-630.9842C279.2806,-617.6689 266.4936,-598.2421 259.9464,-579 240.9931,-523.2968 239.1044,-453.6377 239.7857,-415.4019"/>
<polygon fill="#000000" stroke="#000000" points="243.2937,-415.1267 240.0486,-405.0411 236.2959,-414.9491 243.2937,-415.1267"/>
<text text-anchor="middle" x="257.4464" y="-513.8" font-family="Times,serif" font-size="14.00" fill="#000000">1,0</text>
</g>
<!-- 26 -->
<g id="node24" class="node">
<title>26</title>
<ellipse fill="none" stroke="#000000" cx="509.9464" cy="-561" rx="40.8928" ry="18"/>
<text text-anchor="middle" x="509.9464" y="-557.3" font-family="Times,serif" font-size="14.00" fill="#000000">(2,2,1)</text>
</g>
<!-- 5&#45;&gt;26 -->
<g id="edge11" class="edge">
<title>5&#45;&gt;26</title>
<path fill="none" stroke="#000000" d="M331.8152,-635.0578C345.9136,-628.5071 363.0149,-620.2165 377.9464,-612 388.9667,-605.9357 390.5116,-602.2409 401.9464,-597 426.4826,-585.7543 434.3535,-587.5733 459.9464,-579 462.8278,-578.0348 465.7954,-577.0199 468.7794,-575.9843"/>
<polygon fill="#000000" stroke="#000000" points="470.0094,-579.2619 478.2803,-572.6405 467.6854,-572.6589 470.0094,-579.2619"/>
<text text-anchor="middle" x="413.4464" y="-600.8" font-family="Times,serif" font-size="14.00" fill="#000000">1,1</text>
</g>
<!-- 6 -->
<g id="node6" class="node">
<title>6</title>
<ellipse fill="#ff0000" stroke="#000000" cx="508.9464" cy="-843" rx="40.8928" ry="18"/>
<text text-anchor="middle" x="508.9464" y="-839.3" font-family="Times,serif" font-size="14.00" fill="#000000">(2,1,0)</text>
</g>
<!-- 6&#45;&gt;26 -->
<g id="edge12" class="edge">
<title>6&#45;&gt;26</title>
<path fill="none" stroke="#000000" d="M509.0104,-824.9306C509.1797,-777.1938 509.6399,-647.4254 509.8452,-589.5391"/>
<polygon fill="#000000" stroke="#000000" points="513.346,-589.2962 509.8815,-579.2838 506.346,-589.2713 513.346,-589.2962"/>
<text text-anchor="middle" x="520.4464" y="-698.3" font-family="Times,serif" font-size="14.00" fill="#000000">1,0</text>
</g>
<!-- 7 -->
<g id="node7" class="node">
<title>7</title>
<ellipse fill="#ff0000" stroke="#000000" cx="365.9464" cy="-1038" rx="40.8928" ry="18"/>
<text text-anchor="middle" x="365.9464" y="-1034.3" font-family="Times,serif" font-size="14.00" fill="#000000">(2,0,0)</text>
</g>
<!-- 8 -->
<g id="node8" class="node">
<title>8</title>
<ellipse fill="#ff0000" stroke="#000000" cx="440.9464" cy="-648" rx="40.8928" ry="18"/>
<text text-anchor="middle" x="440.9464" y="-644.3" font-family="Times,serif" font-size="14.00" fill="#000000">(1,3,0)</text>
</g>
<!-- 8&#45;&gt;26 -->
<g id="edge13" class="edge">
<title>8&#45;&gt;26</title>
<path fill="none" stroke="#000000" d="M450.6388,-630.3044C456.5362,-620.1559 464.5362,-607.4059 472.9464,-597 476.3107,-592.8373 480.1188,-588.6577 483.9807,-584.6956"/>
<polygon fill="#000000" stroke="#000000" points="486.7093,-586.9203 491.3707,-577.406 481.7935,-581.9368 486.7093,-586.9203"/>
<text text-anchor="middle" x="484.4464" y="-600.8" font-family="Times,serif" font-size="14.00" fill="#000000">0,2</text>
</g>
<!-- 9 -->
<g id="node9" class="node">
<title>9</title>
<ellipse fill="#ff0000" stroke="#000000" cx="308.9464" cy="-843" rx="40.8928" ry="18"/>
<text text-anchor="middle" x="308.9464" y="-839.3" font-family="Times,serif" font-size="14.00" fill="#000000">(1,2,0)</text>
</g>
<!-- 9&#45;&gt;26 -->
<g id="edge14" class="edge">
<title>9&#45;&gt;26</title>
<path fill="none" stroke="#000000" d="M290.1352,-826.9153C267.0905,-805.268 233.6958,-766.2226 255.9464,-738 277.1698,-711.0802 302.8326,-739.6145 330.9464,-720 370.373,-692.4927 355.2786,-662.2323 390.9464,-630 403.632,-618.5362 410.0547,-620.4015 424.9464,-612 442.3624,-602.1744 461.4798,-590.7615 477.1661,-581.2264"/>
<polygon fill="#000000" stroke="#000000" points="479.2541,-584.0525 485.9667,-575.8555 475.6075,-578.0774 479.2541,-584.0525"/>
<text text-anchor="middle" x="370.4464" y="-698.3" font-family="Times,serif" font-size="14.00" fill="#000000">0,1</text>
</g>
<!-- 29 -->
<g id="node26" class="node">
<title>29</title>
<ellipse fill="none" stroke="#000000" cx="305.9464" cy="-756" rx="40.8928" ry="18"/>
<text text-anchor="middle" x="305.9464" y="-752.3" font-family="Times,serif" font-size="14.00" fill="#000000">(3,1,1)</text>
</g>
<!-- 9&#45;&gt;29 -->
<g id="edge15" class="edge">
<title>9&#45;&gt;29</title>
<path fill="none" stroke="#000000" d="M308.3248,-824.9735C307.9185,-813.1918 307.3795,-797.5607 306.9173,-784.1581"/>
<polygon fill="#000000" stroke="#000000" points="310.4098,-783.8768 306.5672,-774.0034 303.414,-784.1181 310.4098,-783.8768"/>
<text text-anchor="middle" x="318.4464" y="-795.8" font-family="Times,serif" font-size="14.00" fill="#000000">1,0</text>
</g>
<!-- 10 -->
<g id="node10" class="node">
<title>10</title>
<ellipse fill="none" stroke="#000000" cx="208.9464" cy="-843" rx="40.8928" ry="18"/>
<text text-anchor="middle" x="208.9464" y="-839.3" font-family="Times,serif" font-size="14.00" fill="#000000">(1,1,0)</text>
</g>
<!-- 27 -->
<g id="node25" class="node">
<title>27</title>
<ellipse fill="#ff0000" stroke="#000000" cx="218.9464" cy="-702" rx="40.8928" ry="18"/>
<text text-anchor="middle" x="218.9464" y="-698.3" font-family="Times,serif" font-size="14.00" fill="#000000">(2,3,1)</text>
</g>
<!-- 10&#45;&gt;27 -->
<g id="edge16" class="edge">
<title>10&#45;&gt;27</title>
<path fill="none" stroke="#000000" d="M210.2332,-824.8554C211.9358,-800.8485 214.9544,-758.2861 216.9532,-730.1035"/>
<polygon fill="#000000" stroke="#000000" points="220.4481,-730.2976 217.6645,-720.075 213.4657,-729.8023 220.4481,-730.2976"/>
<text text-anchor="middle" x="223.4464" y="-795.8" font-family="Times,serif" font-size="14.00" fill="#000000">0,1</text>
</g>
<!-- 30 -->
<g id="node27" class="node">
<title>30</title>
<ellipse fill="none" stroke="#000000" cx="321.9464" cy="-930" rx="40.8928" ry="18"/>
<text text-anchor="middle" x="321.9464" y="-926.3" font-family="Times,serif" font-size="14.00" fill="#000000">(3,2,1)</text>
</g>
<!-- 10&#45;&gt;30 -->
<g id="edge17" class="edge">
<title>10&#45;&gt;30</title>
<path fill="none" stroke="#000000" d="M212.9999,-861.0675C216.2459,-871.8557 221.8095,-885.1381 230.9464,-894 243.0659,-905.7549 259.4887,-913.8084 275.0476,-919.2628"/>
<polygon fill="#000000" stroke="#000000" points="273.9859,-922.5979 284.5774,-922.333 276.1324,-915.9351 273.9859,-922.5979"/>
<text text-anchor="middle" x="242.4464" y="-882.8" font-family="Times,serif" font-size="14.00" fill="#000000">1,0</text>
</g>
<!-- 11 -->
<g id="node11" class="node">
<title>11</title>
<ellipse fill="#ff0000" stroke="#000000" cx="465.9464" cy="-1038" rx="40.8928" ry="18"/>
<text text-anchor="middle" x="465.9464" y="-1034.3" font-family="Times,serif" font-size="14.00" fill="#000000">(1,0,0)</text>
</g>
<!-- 12 -->
<g id="node12" class="node">
<title>12</title>
<ellipse fill="none" stroke="#000000" cx="408.9464" cy="-843" rx="40.8928" ry="18"/>
<text text-anchor="middle" x="408.9464" y="-839.3" font-family="Times,serif" font-size="14.00" fill="#000000">(0,3,0)</text>
</g>
<!-- 12&#45;&gt;29 -->
<g id="edge18" class="edge">
<title>12&#45;&gt;29</title>
<path fill="none" stroke="#000000" d="M389.5729,-826.636C373.5027,-813.0622 350.4839,-793.6191 332.6634,-778.5668"/>
<polygon fill="#000000" stroke="#000000" points="334.783,-775.7757 324.885,-771.9967 330.266,-781.1234 334.783,-775.7757"/>
<text text-anchor="middle" x="374.4464" y="-795.8" font-family="Times,serif" font-size="14.00" fill="#000000">0,1</text>
</g>
<!-- 13 -->
<g id="node13" class="node">
<title>13</title>
<ellipse fill="none" stroke="#000000" cx="265.9464" cy="-1038" rx="40.8928" ry="18"/>
<text text-anchor="middle" x="265.9464" y="-1034.3" font-family="Times,serif" font-size="14.00" fill="#000000">(0,2,0)</text>
</g>
<!-- 13&#45;&gt;30 -->
<g id="edge19" class="edge">
<title>13&#45;&gt;30</title>
<path fill="none" stroke="#000000" d="M275.1936,-1020.166C284.1104,-1002.9693 297.7231,-976.7164 307.9641,-956.9657"/>
<polygon fill="#000000" stroke="#000000" points="311.1893,-958.3492 312.6854,-947.8605 304.975,-955.1269 311.1893,-958.3492"/>
<text text-anchor="middle" x="313.4464" y="-980.3" font-family="Times,serif" font-size="14.00" fill="#000000">0,1</text>
</g>
<!-- 14 -->
<g id="node14" class="node">
<title>14</title>
<ellipse fill="none" stroke="#000000" cx="428.9464" cy="-984" rx="40.8928" ry="18"/>
<text text-anchor="middle" x="428.9464" y="-980.3" font-family="Times,serif" font-size="14.00" fill="#000000">(0,1,0)</text>
</g>
<!-- 18&#45;&gt;0 -->
<g id="edge20" class="edge">
<title>18&#45;&gt;0</title>
<path fill="none" stroke="#000000" d="M388.4639,-35.4497C385.0307,-41.3005 381.2513,-47.8904 377.9464,-54 369.4352,-69.734 373.623,-78.4696 359.9464,-90 340.6119,-106.3003 314.0495,-115.2209 290.9248,-120.1025"/>
<polygon fill="#000000" stroke="#000000" points="290.0841,-116.6997 280.9191,-122.0151 291.3984,-123.5752 290.0841,-116.6997"/>
<text text-anchor="middle" x="389.4464" y="-68.3" font-family="Times,serif" font-size="14.00" fill="#000000">0,2</text>
</g>
<!-- 19&#45;&gt;1 -->
<g id="edge21" class="edge">
<title>19&#45;&gt;1</title>
<path fill="none" stroke="#000000" d="M363.7958,-370.2701C353.3706,-359.4711 338.7749,-345.6827 323.9464,-336 311.3529,-327.7768 296.5677,-320.6685 282.9924,-314.9915"/>
<polygon fill="#000000" stroke="#000000" points="283.9534,-311.6054 273.3699,-311.1153 281.3378,-318.0984 283.9534,-311.6054"/>
<text text-anchor="middle" x="354.4464" y="-339.8" font-family="Times,serif" font-size="14.00" fill="#000000">0,2</text>
</g>
<!-- 21&#45;&gt;0 -->
<g id="edge22" class="edge">
<title>21&#45;&gt;0</title>
<path fill="none" stroke="#000000" d="M240.9464,-194.9735C240.9464,-183.1918 240.9464,-167.5607 240.9464,-154.1581"/>
<polygon fill="#000000" stroke="#000000" points="244.4465,-154.0033 240.9464,-144.0034 237.4465,-154.0034 244.4465,-154.0033"/>
<text text-anchor="middle" x="252.4464" y="-165.8" font-family="Times,serif" font-size="14.00" fill="#000000">1,1</text>
</g>
<!-- 21&#45;&gt;4 -->
<g id="edge23" class="edge">
<title>21&#45;&gt;4</title>
<path fill="none" stroke="#000000" d="M263.42,-197.9105C301.135,-172.5876 377.2246,-121.4989 419.9786,-92.7927"/>
<polygon fill="#000000" stroke="#000000" points="421.9657,-95.6743 428.3169,-87.1941 418.0636,-89.8627 421.9657,-95.6743"/>
<text text-anchor="middle" x="325.4464" y="-165.8" font-family="Times,serif" font-size="14.00" fill="#000000">0,1</text>
</g>
<!-- 22&#45;&gt;1 -->
<g id="edge24" class="edge">
<title>22&#45;&gt;1</title>
<path fill="none" stroke="#000000" d="M311.1286,-542.858C312.7655,-507.9774 313.3362,-429.6465 290.9464,-369 284.8941,-352.6065 273.7815,-336.6507 263.5671,-324.2191"/>
<polygon fill="#000000" stroke="#000000" points="266.2043,-321.9177 257.0467,-316.5895 260.8829,-326.4655 266.2043,-321.9177"/>
<text text-anchor="middle" x="318.4464" y="-426.8" font-family="Times,serif" font-size="14.00" fill="#000000">1,1</text>
</g>
<!-- 22&#45;&gt;2 -->
<g id="edge25" class="edge">
<title>22&#45;&gt;2</title>
<path fill="none" stroke="#000000" d="M334.8856,-546.4382C359.5967,-532.0095 397.6217,-509.807 425.0607,-493.7856"/>
<polygon fill="#000000" stroke="#000000" points="427.0549,-496.6742 433.9258,-488.6094 423.5252,-490.6292 427.0549,-496.6742"/>
<text text-anchor="middle" x="404.4464" y="-513.8" font-family="Times,serif" font-size="14.00" fill="#000000">1,0</text>
</g>
<!-- 23&#45;&gt;2 -->
<g id="edge26" class="edge">
<title>23&#45;&gt;2</title>
<path fill="none" stroke="#000000" d="M419.8622,-543.3943C426.7695,-531.1303 436.1085,-514.5489 443.9253,-500.67"/>
<polygon fill="#000000" stroke="#000000" points="447.1874,-502.0103 449.0452,-491.5796 441.0882,-498.5751 447.1874,-502.0103"/>
<text text-anchor="middle" x="448.4464" y="-513.8" font-family="Times,serif" font-size="14.00" fill="#000000">1,1</text>
</g>
<!-- 25&#45;&gt;1 -->
<g id="edge27" class="edge">
<title>25&#45;&gt;1</title>
<path fill="none" stroke="#000000" d="M240.9464,-368.9735C240.9464,-357.1918 240.9464,-341.5607 240.9464,-328.1581"/>
<polygon fill="#000000" stroke="#000000" points="244.4465,-328.0033 240.9464,-318.0034 237.4465,-328.0034 244.4465,-328.0033"/>
<text text-anchor="middle" x="252.4464" y="-339.8" font-family="Times,serif" font-size="14.00" fill="#000000">2,0</text>
</g>
<!-- 26&#45;&gt;2 -->
<g id="edge28" class="edge">
<title>26&#45;&gt;2</title>
<path fill="none" stroke="#000000" d="M499.6258,-543.3943C492.3674,-531.0124 482.5293,-514.2297 474.3463,-500.2704"/>
<polygon fill="#000000" stroke="#000000" points="477.3283,-498.4365 469.2516,-491.5796 471.2894,-501.9766 477.3283,-498.4365"/>
<text text-anchor="middle" x="498.4464" y="-513.8" font-family="Times,serif" font-size="14.00" fill="#000000">2,0</text>
</g>
<!-- 29&#45;&gt;5 -->
<g id="edge29" class="edge">
<title>29&#45;&gt;5</title>
<path fill="none" stroke="#000000" d="M305.4375,-737.6793C304.9692,-720.821 304.2676,-695.5651 303.7282,-676.147"/>
<polygon fill="#000000" stroke="#000000" points="307.2242,-675.9491 303.4478,-666.0502 300.2269,-676.1435 307.2242,-675.9491"/>
<text text-anchor="middle" x="315.4464" y="-698.3" font-family="Times,serif" font-size="14.00" fill="#000000">2,0</text>
</g>
<!-- 29&#45;&gt;8 -->
<g id="edge30" class="edge">
<title>29&#45;&gt;8</title>
<path fill="none" stroke="#000000" d="M344.2626,-749.1914C364.2602,-744.0065 388.0166,-735.0887 404.9464,-720 418.0856,-708.2897 427.0096,-690.6764 432.6859,-675.802"/>
<polygon fill="#000000" stroke="#000000" points="436.1,-676.6429 436.1087,-666.0481 429.4948,-674.3251 436.1,-676.6429"/>
<text text-anchor="middle" x="440.4464" y="-698.3" font-family="Times,serif" font-size="14.00" fill="#000000">1,1</text>
</g>
<!-- 30&#45;&gt;6 -->
<g id="edge31" class="edge">
<title>30&#45;&gt;6</title>
<path fill="none" stroke="#000000" d="M350.3476,-916.7866C382.7058,-901.7322 435.7146,-877.0704 471.4465,-860.4464"/>
<polygon fill="#000000" stroke="#000000" points="472.9944,-863.5866 480.5848,-856.195 470.0416,-857.2399 472.9944,-863.5866"/>
<text text-anchor="middle" x="437.4464" y="-882.8" font-family="Times,serif" font-size="14.00" fill="#000000">2,0</text>
</g>
<!-- 30&#45;&gt;9 -->
<g id="edge32" class="edge">
<title>30&#45;&gt;9</title>
<path fill="none" stroke="#000000" d="M319.2528,-911.9735C317.4923,-900.1918 315.1566,-884.5607 313.1539,-871.1581"/>
<polygon fill="#000000" stroke="#000000" points="316.576,-870.3763 311.6365,-861.0034 309.6529,-871.4108 316.576,-870.3763"/>
<text text-anchor="middle" x="327.4464" y="-882.8" font-family="Times,serif" font-size="14.00" fill="#000000">1,1</text>
</g>
<!-- 30&#45;&gt;10 -->
<g id="edge33" class="edge">
<title>30&#45;&gt;10</title>
<path fill="none" stroke="#000000" d="M301.4829,-914.245C283.5635,-900.4486 257.3438,-880.2617 237.3854,-864.8955"/>
<polygon fill="#000000" stroke="#000000" points="239.3164,-861.9651 229.2576,-858.6378 235.046,-867.5116 239.3164,-861.9651"/>
<text text-anchor="middle" x="283.4464" y="-882.8" font-family="Times,serif" font-size="14.00" fill="#000000">1,0</text>
</g>
<!-- 30&#45;&gt;12 -->
<g id="edge34" class="edge">
<title>30&#45;&gt;12</title>
<path fill="none" stroke="#000000" d="M338.7208,-913.2255C351.8398,-900.1066 370.2536,-881.6928 384.9344,-867.012"/>
<polygon fill="#000000" stroke="#000000" points="387.6272,-869.269 392.2234,-859.723 382.6774,-864.3192 387.6272,-869.269"/>
<text text-anchor="middle" x="381.4464" y="-882.8" font-family="Times,serif" font-size="14.00" fill="#000000">0,2</text>
</g>
<!-- 31 -->
<g id="node28" class="node">
<title>31</title>
<ellipse fill="none" stroke="#000000" cx="365.9464" cy="-1125" rx="40.8928" ry="18"/>
<text text-anchor="middle" x="365.9464" y="-1121.3" font-family="Times,serif" font-size="14.00" fill="#000000">(3,3,1)</text>
</g>
<!-- 31&#45;&gt;7 -->
<g id="edge35" class="edge">
<title>31&#45;&gt;7</title>
<path fill="none" stroke="#000000" d="M365.9464,-1106.9735C365.9464,-1095.1918 365.9464,-1079.5607 365.9464,-1066.1581"/>
<polygon fill="#000000" stroke="#000000" points="369.4465,-1066.0033 365.9464,-1056.0034 362.4465,-1066.0034 369.4465,-1066.0033"/>
<text text-anchor="middle" x="377.4464" y="-1077.8" font-family="Times,serif" font-size="14.00" fill="#000000">2,0</text>
</g>
<!-- 31&#45;&gt;10 -->
<g id="edge36" class="edge">
<title>31&#45;&gt;10</title>
<path fill="none" stroke="#000000" d="M327.1692,-1118.8436C291.6205,-1110.9472 240.8444,-1093.4889 215.9464,-1056 178.4093,-999.4806 191.058,-914.6383 201.2548,-871.0516"/>
<polygon fill="#000000" stroke="#000000" points="204.7003,-871.6978 203.6976,-861.1506 197.9041,-870.021 204.7003,-871.6978"/>
<text text-anchor="middle" x="205.4464" y="-980.3" font-family="Times,serif" font-size="14.00" fill="#000000">1,1</text>
</g>
<!-- 31&#45;&gt;11 -->
<g id="edge37" class="edge">
<title>31&#45;&gt;11</title>
<path fill="none" stroke="#000000" d="M384.7556,-1108.636C400.1199,-1095.2691 422.0264,-1076.2104 439.2129,-1061.2581"/>
<polygon fill="#000000" stroke="#000000" points="441.9743,-1063.4949 447.2215,-1054.2907 437.3797,-1058.2138 441.9743,-1063.4949"/>
<text text-anchor="middle" x="432.4464" y="-1077.8" font-family="Times,serif" font-size="14.00" fill="#000000">1,0</text>
</g>
<!-- 31&#45;&gt;13 -->
<g id="edge38" class="edge">
<title>31&#45;&gt;13</title>
<path fill="none" stroke="#000000" d="M347.1371,-1108.636C331.7729,-1095.2691 309.8663,-1076.2104 292.6798,-1061.2581"/>
<polygon fill="#000000" stroke="#000000" points="294.513,-1058.2138 284.6713,-1054.2907 289.9184,-1063.4949 294.513,-1058.2138"/>
<text text-anchor="middle" x="332.4464" y="-1077.8" font-family="Times,serif" font-size="14.00" fill="#000000">0,2</text>
</g>
<!-- 31&#45;&gt;14 -->
<g id="edge39" class="edge">
<title>31&#45;&gt;14</title>
<path fill="none" stroke="#000000" d="M404.8354,-1119.2096C440.7299,-1111.5622 491.9844,-1094.2632 515.9464,-1056 524.4384,-1042.4396 524.8379,-1033.3019 515.9464,-1020 507.0789,-1006.7341 492.324,-998.3507 477.4611,-993.0552"/>
<polygon fill="#000000" stroke="#000000" points="478.3285,-989.6591 467.7391,-990.0009 476.2303,-996.3373 478.3285,-989.6591"/>
<text text-anchor="middle" x="511.4464" y="-1077.8" font-family="Times,serif" font-size="14.00" fill="#000000">0,1</text>
</g>
</g>
</svg>
