<?xml version="1.0" encoding="UTF-8" standalone="no"?>
<!DOCTYPE svg PUBLIC "-//W3C//DTD SVG 1.1//EN"
 "http://www.w3.org/Graphics/SVG/1.1/DTD/svg11.dtd">
<!-- Generated by graphviz version 2.40.1 (0)
 -->
<!-- Title: %3 Pages: 1 -->
<svg width="490pt" height="1106pt"
 viewBox="0.00 0.00 489.89 1106.00" xmlns="http://www.w3.org/2000/svg" xmlns:xlink="http://www.w3.org/1999/xlink">
<g id="graph0" class="graph" transform="scale(1 1) rotate(0) translate(4 1102)">
<title>%3</title>
<polygon fill="#ffffff" stroke="transparent" points="-4,4 -4,-1102 485.8927,-1102 485.8927,4 -4,4"/>
<!-- 0 -->
<g id="node1" class="node">
<title>0</title>
<ellipse fill="none" stroke="#000000" cx="302.9464" cy="-18" rx="40.8928" ry="18"/>
<text text-anchor="middle" x="302.9464" y="-14.3" font-family="Times,serif" font-size="14.00" fill="#000000">(3,3,0)</text>
</g>
<!-- 1 -->
<g id="node2" class="node">
<title>1</title>
<ellipse fill="none" stroke="#000000" cx="402.9464" cy="-192" rx="40.8928" ry="18"/>
<text text-anchor="middle" x="402.9464" y="-188.3" font-family="Times,serif" font-size="14.00" fill="#000000">(3,2,0)</text>
</g>
<!-- 102 -->
<g id="node15" class="node">
<title>102</title>
<ellipse fill="none" stroke="#000000" cx="302.9464" cy="-105" rx="40.8928" ry="18"/>
<text text-anchor="middle" x="302.9464" y="-101.3" font-family="Times,serif" font-size="14.00" fill="#000000">(0,2,1)</text>
</g>
<!-- 1&#45;&gt;102 -->
<g id="edge1" class="edge">
<title>1&#45;&gt;102</title>
<path fill="none" stroke="#000000" d="M384.1371,-175.636C368.7729,-162.2691 346.8663,-143.2104 329.6798,-128.2581"/>
<polygon fill="#000000" stroke="#000000" points="331.513,-125.2138 321.6713,-121.2907 326.9184,-130.4949 331.513,-125.2138"/>
<text text-anchor="middle" x="369.4464" y="-144.8" font-family="Times,serif" font-size="14.00" fill="#000000">0,1</text>
</g>
<!-- 111 -->
<g id="node17" class="node">
<title>111</title>
<ellipse fill="none" stroke="#000000" cx="402.9464" cy="-105" rx="40.8928" ry="18"/>
<text text-anchor="middle" x="402.9464" y="-101.3" font-family="Times,serif" font-size="14.00" fill="#000000">(1,1,1)</text>
</g>
<!-- 1&#45;&gt;111 -->
<g id="edge2" class="edge">
<title>1&#45;&gt;111</title>
<path fill="none" stroke="#000000" d="M402.9464,-173.9735C402.9464,-162.1918 402.9464,-146.5607 402.9464,-133.1581"/>
<polygon fill="#000000" stroke="#000000" points="406.4465,-133.0033 402.9464,-123.0034 399.4465,-133.0034 406.4465,-133.0033"/>
<text text-anchor="middle" x="414.4464" y="-144.8" font-family="Times,serif" font-size="14.00" fill="#000000">1,0</text>
</g>
<!-- 2 -->
<g id="node3" class="node">
<title>2</title>
<ellipse fill="none" stroke="#000000" cx="404.9464" cy="-387" rx="40.8928" ry="18"/>
<text text-anchor="middle" x="404.9464" y="-383.3" font-family="Times,serif" font-size="14.00" fill="#000000">(3,1,0)</text>
</g>
<!-- 103 -->
<g id="node16" class="node">
<title>103</title>
<ellipse fill="none" stroke="#000000" cx="402.9464" cy="-279" rx="40.8928" ry="18"/>
<text text-anchor="middle" x="402.9464" y="-275.3" font-family="Times,serif" font-size="14.00" fill="#000000">(0,3,1)</text>
</g>
<!-- 2&#45;&gt;103 -->
<g id="edge3" class="edge">
<title>2&#45;&gt;103</title>
<path fill="none" stroke="#000000" d="M404.6071,-368.6793C404.2949,-351.821 403.8272,-326.5651 403.4676,-307.147"/>
<polygon fill="#000000" stroke="#000000" points="406.9653,-306.9836 403.2806,-297.0502 399.9665,-307.1133 406.9653,-306.9836"/>
<text text-anchor="middle" x="415.4464" y="-329.3" font-family="Times,serif" font-size="14.00" fill="#000000">0,1</text>
</g>
<!-- 10 -->
<g id="node4" class="node">
<title>10</title>
<ellipse fill="#ff0000" stroke="#000000" cx="402.9464" cy="-18" rx="40.8928" ry="18"/>
<text text-anchor="middle" x="402.9464" y="-14.3" font-family="Times,serif" font-size="14.00" fill="#000000">(2,3,0)</text>
</g>
<!-- 11 -->
<g id="node5" class="node">
<title>11</title>
<ellipse fill="none" stroke="#000000" cx="340.9464" cy="-582" rx="40.8928" ry="18"/>
<text text-anchor="middle" x="340.9464" y="-578.3" font-family="Times,serif" font-size="14.00" fill="#000000">(2,2,0)</text>
</g>
<!-- 112 -->
<g id="node18" class="node">
<title>112</title>
<ellipse fill="#ff0000" stroke="#000000" cx="228.9464" cy="-441" rx="40.8928" ry="18"/>
<text text-anchor="middle" x="228.9464" y="-437.3" font-family="Times,serif" font-size="14.00" fill="#000000">(1,2,1)</text>
</g>
<!-- 11&#45;&gt;112 -->
<g id="edge4" class="edge">
<title>11&#45;&gt;112</title>
<path fill="none" stroke="#000000" d="M301.146,-577.4703C276.0301,-572.9343 244.0807,-563.9063 220.9464,-546 195.6972,-526.4568 190.5843,-507.2007 200.9464,-477 202.2673,-473.15 204.1868,-469.3946 206.4112,-465.851"/>
<polygon fill="#000000" stroke="#000000" points="209.3903,-467.7037 212.4013,-457.5457 203.7129,-463.6089 209.3903,-467.7037"/>
<text text-anchor="middle" x="232.4464" y="-534.8" font-family="Times,serif" font-size="14.00" fill="#000000">0,1</text>
</g>
<!-- 113 -->
<g id="node19" class="node">
<title>113</title>
<ellipse fill="#ff0000" stroke="#000000" cx="337.9464" cy="-333" rx="40.8928" ry="18"/>
<text text-anchor="middle" x="337.9464" y="-329.3" font-family="Times,serif" font-size="14.00" fill="#000000">(1,3,1)</text>
</g>
<!-- 11&#45;&gt;113 -->
<g id="edge5" class="edge">
<title>11&#45;&gt;113</title>
<path fill="none" stroke="#000000" d="M307.9119,-571.1302C282.0942,-560.6874 247.9855,-542.1358 231.9464,-513 224.2303,-498.9835 222.8788,-490.1825 231.9464,-477 244.6231,-458.5705 262.5691,-474.2358 278.9464,-459 307.4868,-432.4488 323.4903,-389.3002 331.4214,-361.032"/>
<polygon fill="#000000" stroke="#000000" points="334.9034,-361.5545 334.0751,-350.9921 328.1358,-359.7656 334.9034,-361.5545"/>
<text text-anchor="middle" x="243.4464" y="-491.3" font-family="Times,serif" font-size="14.00" fill="#000000">0,2</text>
</g>
<!-- 121 -->
<g id="node20" class="node">
<title>121</title>
<ellipse fill="#ff0000" stroke="#000000" cx="304.9464" cy="-495" rx="40.8928" ry="18"/>
<text text-anchor="middle" x="304.9464" y="-491.3" font-family="Times,serif" font-size="14.00" fill="#000000">(2,1,1)</text>
</g>
<!-- 11&#45;&gt;121 -->
<g id="edge6" class="edge">
<title>11&#45;&gt;121</title>
<path fill="none" stroke="#000000" d="M333.4871,-563.9735C328.5154,-551.9585 321.8871,-535.9401 316.2696,-522.3646"/>
<polygon fill="#000000" stroke="#000000" points="319.4537,-520.9053 312.396,-513.0034 312.9856,-523.5818 319.4537,-520.9053"/>
<text text-anchor="middle" x="336.4464" y="-534.8" font-family="Times,serif" font-size="14.00" fill="#000000">1,0</text>
</g>
<!-- 122 -->
<g id="node21" class="node">
<title>122</title>
<ellipse fill="none" stroke="#000000" cx="404.9464" cy="-495" rx="40.8928" ry="18"/>
<text text-anchor="middle" x="404.9464" y="-491.3" font-family="Times,serif" font-size="14.00" fill="#000000">(2,2,1)</text>
</g>
<!-- 11&#45;&gt;122 -->
<g id="edge7" class="edge">
<title>11&#45;&gt;122</title>
<path fill="none" stroke="#000000" d="M353.5907,-564.8116C362.8823,-552.1808 375.6614,-534.8092 386.1473,-520.5549"/>
<polygon fill="#000000" stroke="#000000" points="389.2219,-522.2819 392.3283,-512.1527 383.5833,-518.1339 389.2219,-522.2819"/>
<text text-anchor="middle" x="387.4464" y="-534.8" font-family="Times,serif" font-size="14.00" fill="#000000">1,1</text>
</g>
<!-- 12 -->
<g id="node6" class="node">
<title>12</title>
<ellipse fill="#ff0000" stroke="#000000" cx="140.9464" cy="-777" rx="40.8928" ry="18"/>
<text text-anchor="middle" x="140.9464" y="-773.3" font-family="Times,serif" font-size="14.00" fill="#000000">(2,1,0)</text>
</g>
<!-- 13 -->
<g id="node7" class="node">
<title>13</title>
<ellipse fill="#ff0000" stroke="#000000" cx="40.9464" cy="-993" rx="40.8928" ry="18"/>
<text text-anchor="middle" x="40.9464" y="-989.3" font-family="Times,serif" font-size="14.00" fill="#000000">(2,0,0)</text>
</g>
<!-- 20 -->
<g id="node8" class="node">
<title>20</title>
<ellipse fill="#ff0000" stroke="#000000" cx="440.9464" cy="-582" rx="40.8928" ry="18"/>
<text text-anchor="middle" x="440.9464" y="-578.3" font-family="Times,serif" font-size="14.00" fill="#000000">(1,3,0)</text>
</g>
<!-- 21 -->
<g id="node9" class="node">
<title>21</title>
<ellipse fill="#ff0000" stroke="#000000" cx="240.9464" cy="-777" rx="40.8928" ry="18"/>
<text text-anchor="middle" x="240.9464" y="-773.3" font-family="Times,serif" font-size="14.00" fill="#000000">(1,2,0)</text>
</g>
<!-- 22 -->
<g id="node10" class="node">
<title>22</title>
<ellipse fill="none" stroke="#000000" cx="140.9464" cy="-993" rx="40.8928" ry="18"/>
<text text-anchor="middle" x="140.9464" y="-989.3" font-family="Times,serif" font-size="14.00" fill="#000000">(1,1,0)</text>
</g>
<!-- 123 -->
<g id="node22" class="node">
<title>123</title>
<ellipse fill="#ff0000" stroke="#000000" cx="74.9464" cy="-831" rx="40.8928" ry="18"/>
<text text-anchor="middle" x="74.9464" y="-827.3" font-family="Times,serif" font-size="14.00" fill="#000000">(2,3,1)</text>
</g>
<!-- 22&#45;&gt;123 -->
<g id="edge8" class="edge">
<title>22&#45;&gt;123</title>
<path fill="none" stroke="#000000" d="M126.8799,-976.0045C122.4265,-970.1839 117.693,-963.4971 113.9464,-957 100.915,-934.4018 98.9207,-927.8376 90.9464,-903 86.3752,-888.7621 82.645,-872.5312 79.9397,-859.0885"/>
<polygon fill="#000000" stroke="#000000" points="83.3239,-858.153 77.9934,-848.9968 76.4506,-859.4787 83.3239,-858.153"/>
<text text-anchor="middle" x="125.4464" y="-935.3" font-family="Times,serif" font-size="14.00" fill="#000000">0,1</text>
</g>
<!-- 132 -->
<g id="node24" class="node">
<title>132</title>
<ellipse fill="none" stroke="#000000" cx="140.9464" cy="-885" rx="40.8928" ry="18"/>
<text text-anchor="middle" x="140.9464" y="-881.3" font-family="Times,serif" font-size="14.00" fill="#000000">(3,2,1)</text>
</g>
<!-- 22&#45;&gt;132 -->
<g id="edge9" class="edge">
<title>22&#45;&gt;132</title>
<path fill="none" stroke="#000000" d="M140.9464,-974.6793C140.9464,-957.821 140.9464,-932.5651 140.9464,-913.147"/>
<polygon fill="#000000" stroke="#000000" points="144.4465,-913.0501 140.9464,-903.0502 137.4465,-913.0502 144.4465,-913.0501"/>
<text text-anchor="middle" x="152.4464" y="-935.3" font-family="Times,serif" font-size="14.00" fill="#000000">1,0</text>
</g>
<!-- 23 -->
<g id="node11" class="node">
<title>23</title>
<ellipse fill="#ff0000" stroke="#000000" cx="240.9464" cy="-993" rx="40.8928" ry="18"/>
<text text-anchor="middle" x="240.9464" y="-989.3" font-family="Times,serif" font-size="14.00" fill="#000000">(1,0,0)</text>
</g>
<!-- 30 -->
<g id="node12" class="node">
<title>30</title>
<ellipse fill="none" stroke="#000000" cx="340.9464" cy="-777" rx="40.8928" ry="18"/>
<text text-anchor="middle" x="340.9464" y="-773.3" font-family="Times,serif" font-size="14.00" fill="#000000">(0,3,0)</text>
</g>
<!-- 131 -->
<g id="node23" class="node">
<title>131</title>
<ellipse fill="none" stroke="#000000" cx="340.9464" cy="-669" rx="40.8928" ry="18"/>
<text text-anchor="middle" x="340.9464" y="-665.3" font-family="Times,serif" font-size="14.00" fill="#000000">(3,1,1)</text>
</g>
<!-- 30&#45;&gt;131 -->
<g id="edge10" class="edge">
<title>30&#45;&gt;131</title>
<path fill="none" stroke="#000000" d="M338.5188,-758.7185C337.8729,-753.0506 337.2663,-746.7765 336.9464,-741 336.0616,-725.0245 336.0616,-720.9755 336.9464,-705 337.0813,-702.563 337.2673,-700.0375 337.4858,-697.5063"/>
<polygon fill="#000000" stroke="#000000" points="340.9958,-697.5826 338.5188,-687.2815 334.0312,-696.879 340.9958,-697.5826"/>
<text text-anchor="middle" x="348.4464" y="-719.3" font-family="Times,serif" font-size="14.00" fill="#000000">0,1</text>
</g>
<!-- 31 -->
<g id="node13" class="node">
<title>31</title>
<ellipse fill="none" stroke="#000000" cx="246.9464" cy="-939" rx="40.8928" ry="18"/>
<text text-anchor="middle" x="246.9464" y="-935.3" font-family="Times,serif" font-size="14.00" fill="#000000">(0,2,0)</text>
</g>
<!-- 32 -->
<g id="node14" class="node">
<title>32</title>
<ellipse fill="none" stroke="#000000" cx="409.9464" cy="-723" rx="40.8928" ry="18"/>
<text text-anchor="middle" x="409.9464" y="-719.3" font-family="Times,serif" font-size="14.00" fill="#000000">(0,1,0)</text>
</g>
<!-- 102&#45;&gt;0 -->
<g id="edge11" class="edge">
<title>102&#45;&gt;0</title>
<path fill="none" stroke="#000000" d="M302.9464,-86.9735C302.9464,-75.1918 302.9464,-59.5607 302.9464,-46.1581"/>
<polygon fill="#000000" stroke="#000000" points="306.4465,-46.0033 302.9464,-36.0034 299.4465,-46.0034 306.4465,-46.0033"/>
<text text-anchor="middle" x="314.4464" y="-57.8" font-family="Times,serif" font-size="14.00" fill="#000000">0,2</text>
</g>
<!-- 103&#45;&gt;1 -->
<g id="edge12" class="edge">
<title>103&#45;&gt;1</title>
<path fill="none" stroke="#000000" d="M402.9464,-260.9735C402.9464,-249.1918 402.9464,-233.5607 402.9464,-220.1581"/>
<polygon fill="#000000" stroke="#000000" points="406.4465,-220.0033 402.9464,-210.0034 399.4465,-220.0034 406.4465,-220.0033"/>
<text text-anchor="middle" x="414.4464" y="-231.8" font-family="Times,serif" font-size="14.00" fill="#000000">0,2</text>
</g>
<!-- 111&#45;&gt;10 -->
<g id="edge13" class="edge">
<title>111&#45;&gt;10</title>
<path fill="none" stroke="#000000" d="M402.9464,-86.9735C402.9464,-75.1918 402.9464,-59.5607 402.9464,-46.1581"/>
<polygon fill="#000000" stroke="#000000" points="406.4465,-46.0033 402.9464,-36.0034 399.4465,-46.0034 406.4465,-46.0033"/>
<text text-anchor="middle" x="414.4464" y="-57.8" font-family="Times,serif" font-size="14.00" fill="#000000">0,1</text>
</g>
<!-- 122&#45;&gt;2 -->
<g id="edge14" class="edge">
<title>122&#45;&gt;2</title>
<path fill="none" stroke="#000000" d="M404.9464,-476.6793C404.9464,-459.821 404.9464,-434.5651 404.9464,-415.147"/>
<polygon fill="#000000" stroke="#000000" points="408.4465,-415.0501 404.9464,-405.0502 401.4465,-415.0502 408.4465,-415.0501"/>
<text text-anchor="middle" x="416.4464" y="-437.3" font-family="Times,serif" font-size="14.00" fill="#000000">2,0</text>
</g>
<!-- 131&#45;&gt;11 -->
<g id="edge15" class="edge">
<title>131&#45;&gt;11</title>
<path fill="none" stroke="#000000" d="M340.9464,-650.9735C340.9464,-639.1918 340.9464,-623.5607 340.9464,-610.1581"/>
<polygon fill="#000000" stroke="#000000" points="344.4465,-610.0033 340.9464,-600.0034 337.4465,-610.0034 344.4465,-610.0033"/>
<text text-anchor="middle" x="352.4464" y="-621.8" font-family="Times,serif" font-size="14.00" fill="#000000">2,0</text>
</g>
<!-- 131&#45;&gt;20 -->
<g id="edge16" class="edge">
<title>131&#45;&gt;20</title>
<path fill="none" stroke="#000000" d="M359.7556,-652.636C375.1199,-639.2691 397.0264,-620.2104 414.2129,-605.2581"/>
<polygon fill="#000000" stroke="#000000" points="416.9743,-607.4949 422.2215,-598.2907 412.3797,-602.2138 416.9743,-607.4949"/>
<text text-anchor="middle" x="407.4464" y="-621.8" font-family="Times,serif" font-size="14.00" fill="#000000">1,1</text>
</g>
<!-- 132&#45;&gt;12 -->
<g id="edge17" class="edge">
<title>132&#45;&gt;12</title>
<path fill="none" stroke="#000000" d="M140.9464,-866.6793C140.9464,-849.821 140.9464,-824.5651 140.9464,-805.147"/>
<polygon fill="#000000" stroke="#000000" points="144.4465,-805.0501 140.9464,-795.0502 137.4465,-805.0502 144.4465,-805.0501"/>
<text text-anchor="middle" x="152.4464" y="-827.3" font-family="Times,serif" font-size="14.00" fill="#000000">2,0</text>
</g>
<!-- 132&#45;&gt;21 -->
<g id="edge18" class="edge">
<title>132&#45;&gt;21</title>
<path fill="none" stroke="#000000" d="M156.5714,-868.125C173.2298,-850.1339 199.7551,-821.4866 218.6148,-801.1181"/>
<polygon fill="#000000" stroke="#000000" points="221.2051,-803.4721 225.4311,-793.7565 216.0688,-798.7162 221.2051,-803.4721"/>
<text text-anchor="middle" x="217.4464" y="-827.3" font-family="Times,serif" font-size="14.00" fill="#000000">1,1</text>
</g>
<!-- 132&#45;&gt;30 -->
<g id="edge19" class="edge">
<title>132&#45;&gt;30</title>
<path fill="none" stroke="#000000" d="M173.6283,-874.152C191.5545,-867.725 213.9346,-858.9097 232.9464,-849 261.0475,-834.3526 290.8646,-814.0714 312.033,-798.7657"/>
<polygon fill="#000000" stroke="#000000" points="314.2549,-801.4771 320.263,-792.7505 310.1243,-795.8256 314.2549,-801.4771"/>
<text text-anchor="middle" x="301.4464" y="-827.3" font-family="Times,serif" font-size="14.00" fill="#000000">0,2</text>
</g>
<!-- 133 -->
<g id="node25" class="node">
<title>133</title>
<ellipse fill="none" stroke="#000000" cx="90.9464" cy="-1080" rx="40.8928" ry="18"/>
<text text-anchor="middle" x="90.9464" y="-1076.3" font-family="Times,serif" font-size="14.00" fill="#000000">(3,3,1)</text>
</g>
<!-- 133&#45;&gt;13 -->
<g id="edge20" class="edge">
<title>133&#45;&gt;13</title>
<path fill="none" stroke="#000000" d="M80.8281,-1062.3943C73.7121,-1050.0124 64.0669,-1033.2297 56.0443,-1019.2704"/>
<polygon fill="#000000" stroke="#000000" points="59.067,-1017.5057 51.0496,-1010.5796 52.9979,-1020.9937 59.067,-1017.5057"/>
<text text-anchor="middle" x="80.4464" y="-1032.8" font-family="Times,serif" font-size="14.00" fill="#000000">2,0</text>
</g>
<!-- 133&#45;&gt;22 -->
<g id="edge21" class="edge">
<title>133&#45;&gt;22</title>
<path fill="none" stroke="#000000" d="M101.0646,-1062.3943C108.1806,-1050.0124 117.8259,-1033.2297 125.8484,-1019.2704"/>
<polygon fill="#000000" stroke="#000000" points="128.8948,-1020.9937 130.8432,-1010.5796 122.8257,-1017.5057 128.8948,-1020.9937"/>
<text text-anchor="middle" x="130.4464" y="-1032.8" font-family="Times,serif" font-size="14.00" fill="#000000">1,1</text>
</g>
<!-- 133&#45;&gt;23 -->
<g id="edge22" class="edge">
<title>133&#45;&gt;23</title>
<path fill="none" stroke="#000000" d="M115.7158,-1065.6337C140.6857,-1051.1512 179.4033,-1028.695 207.1766,-1012.5865"/>
<polygon fill="#000000" stroke="#000000" points="209.2458,-1015.4325 216.1401,-1007.3876 205.7338,-1009.3772 209.2458,-1015.4325"/>
<text text-anchor="middle" x="186.4464" y="-1032.8" font-family="Times,serif" font-size="14.00" fill="#000000">1,0</text>
</g>
<!-- 133&#45;&gt;31 -->
<g id="edge23" class="edge">
<title>133&#45;&gt;31</title>
<path fill="none" stroke="#000000" d="M128.3694,-1072.5417C180.8597,-1061.2245 272.0668,-1038.1359 290.9464,-1011 300.0842,-997.8661 297.7981,-989.4587 290.9464,-975 288.347,-969.5147 284.4572,-964.5873 280.047,-960.2663"/>
<polygon fill="#000000" stroke="#000000" points="282.1329,-957.4438 272.2696,-953.5753 277.5677,-962.7503 282.1329,-957.4438"/>
<text text-anchor="middle" x="277.4464" y="-1032.8" font-family="Times,serif" font-size="14.00" fill="#000000">0,2</text>
</g>
<!-- 133&#45;&gt;32 -->
<g id="edge24" class="edge">
<title>133&#45;&gt;32</title>
<path fill="none" stroke="#000000" d="M131.4237,-1077.2101C182.9729,-1072.9203 268.328,-1063.117 292.9464,-1044 386.8349,-971.0924 405.4262,-815.6147 409.0731,-751.525"/>
<polygon fill="#000000" stroke="#000000" points="412.5778,-751.5115 409.5676,-741.3532 405.586,-751.1714 412.5778,-751.5115"/>
<text text-anchor="middle" x="386.4464" y="-935.3" font-family="Times,serif" font-size="14.00" fill="#000000">0,1</text>
</g>
</g>
</svg>
