<?xml version="1.0" encoding="UTF-8" standalone="no"?>
<!DOCTYPE svg PUBLIC "-//W3C//DTD SVG 1.1//EN"
 "http://www.w3.org/Graphics/SVG/1.1/DTD/svg11.dtd">
<!-- Generated by graphviz version 2.40.1 (0)
 -->
<!-- Title: %3 Pages: 1 -->
<svg width="681pt" height="758pt"
 viewBox="0.00 0.00 681.18 758.00" xmlns="http://www.w3.org/2000/svg" xmlns:xlink="http://www.w3.org/1999/xlink">
<g id="graph0" class="graph" transform="scale(1 1) rotate(0) translate(4 754)">
<title>%3</title>
<polygon fill="#ffffff" stroke="transparent" points="-4,4 -4,-754 677.1792,-754 677.1792,4 -4,4"/>
<!-- 0 -->
<g id="node1" class="node">
<title>0</title>
<ellipse fill="none" stroke="#000000" cx="523.9464" cy="-732" rx="40.8928" ry="18"/>
<text text-anchor="middle" x="523.9464" y="-728.3" font-family="Times,serif" font-size="14.00" fill="#000000">(3,3,0)</text>
</g>
<!-- 17 -->
<g id="node15" class="node">
<title>17</title>
<ellipse fill="none" stroke="#000000" cx="181.9464" cy="-591" rx="40.8928" ry="18"/>
<text text-anchor="middle" x="181.9464" y="-587.3" font-family="Times,serif" font-size="14.00" fill="#000000">(0,1,1)</text>
</g>
<!-- 0&#45;&gt;17 -->
<g id="edge1" class="edge">
<title>0&#45;&gt;17</title>
<path fill="none" stroke="#000000" d="M483.4789,-728.9107C405.3943,-722.0995 238.1657,-703.106 198.9464,-663 187.7462,-651.5466 183.4244,-634.1626 181.9371,-619.3456"/>
<polygon fill="#000000" stroke="#000000" points="185.4157,-618.8934 181.2973,-609.1318 178.4294,-619.3311 185.4157,-618.8934"/>
<text text-anchor="middle" x="280.4464" y="-684.8" font-family="Times,serif" font-size="14.00" fill="#000000">0,1</text>
</g>
<!-- 18 -->
<g id="node16" class="node">
<title>18</title>
<ellipse fill="none" stroke="#000000" cx="248.9464" cy="-645" rx="40.8928" ry="18"/>
<text text-anchor="middle" x="248.9464" y="-641.3" font-family="Times,serif" font-size="14.00" fill="#000000">(0,2,1)</text>
</g>
<!-- 0&#45;&gt;18 -->
<g id="edge2" class="edge">
<title>0&#45;&gt;18</title>
<path fill="none" stroke="#000000" d="M489.3784,-722.297C464.454,-715.2199 430.0428,-705.2828 399.9464,-696 354.8199,-682.0815 343.6121,-678.3329 298.9464,-663 296.0722,-662.0134 293.1099,-660.9826 290.1298,-659.9355"/>
<polygon fill="#000000" stroke="#000000" points="291.2315,-656.6127 280.6367,-656.569 288.8918,-663.2101 291.2315,-656.6127"/>
<text text-anchor="middle" x="411.4464" y="-684.8" font-family="Times,serif" font-size="14.00" fill="#000000">0,2</text>
</g>
<!-- 20 -->
<g id="node18" class="node">
<title>20</title>
<ellipse fill="#ff0000" stroke="#000000" cx="348.9464" cy="-645" rx="40.8928" ry="18"/>
<text text-anchor="middle" x="348.9464" y="-641.3" font-family="Times,serif" font-size="14.00" fill="#000000">(1,0,1)</text>
</g>
<!-- 0&#45;&gt;20 -->
<g id="edge3" class="edge">
<title>0&#45;&gt;20</title>
<path fill="none" stroke="#000000" d="M496.6026,-718.4063C466.6798,-703.5303 418.5652,-679.6105 385.4382,-663.1417"/>
<polygon fill="#000000" stroke="#000000" points="386.6107,-659.8159 376.0981,-658.4983 383.4945,-666.0841 386.6107,-659.8159"/>
<text text-anchor="middle" x="458.4464" y="-684.8" font-family="Times,serif" font-size="14.00" fill="#000000">1,0</text>
</g>
<!-- 21 -->
<g id="node19" class="node">
<title>21</title>
<ellipse fill="none" stroke="#000000" cx="448.9464" cy="-645" rx="40.8928" ry="18"/>
<text text-anchor="middle" x="448.9464" y="-641.3" font-family="Times,serif" font-size="14.00" fill="#000000">(1,1,1)</text>
</g>
<!-- 0&#45;&gt;21 -->
<g id="edge4" class="edge">
<title>0&#45;&gt;21</title>
<path fill="none" stroke="#000000" d="M509.1288,-714.8116C497.9627,-701.8589 482.4987,-683.9208 470.0424,-669.4714"/>
<polygon fill="#000000" stroke="#000000" points="472.6583,-667.1455 463.478,-661.8567 467.3565,-671.7161 472.6583,-667.1455"/>
<text text-anchor="middle" x="502.4464" y="-684.8" font-family="Times,serif" font-size="14.00" fill="#000000">1,1</text>
</g>
<!-- 24 -->
<g id="node22" class="node">
<title>24</title>
<ellipse fill="#ff0000" stroke="#000000" cx="548.9464" cy="-645" rx="40.8928" ry="18"/>
<text text-anchor="middle" x="548.9464" y="-641.3" font-family="Times,serif" font-size="14.00" fill="#000000">(2,0,1)</text>
</g>
<!-- 0&#45;&gt;24 -->
<g id="edge5" class="edge">
<title>0&#45;&gt;24</title>
<path fill="none" stroke="#000000" d="M529.1264,-713.9735C532.5455,-702.0751 537.0927,-686.2508 540.9692,-672.7606"/>
<polygon fill="#000000" stroke="#000000" points="544.375,-673.5811 543.773,-663.0034 537.6472,-671.6478 544.375,-673.5811"/>
<text text-anchor="middle" x="548.4464" y="-684.8" font-family="Times,serif" font-size="14.00" fill="#000000">2,0</text>
</g>
<!-- 1 -->
<g id="node2" class="node">
<title>1</title>
<ellipse fill="none" stroke="#000000" cx="240.9464" cy="-537" rx="40.8928" ry="18"/>
<text text-anchor="middle" x="240.9464" y="-533.3" font-family="Times,serif" font-size="14.00" fill="#000000">(3,2,0)</text>
</g>
<!-- 19 -->
<g id="node17" class="node">
<title>19</title>
<ellipse fill="none" stroke="#000000" cx="40.9464" cy="-429" rx="40.8928" ry="18"/>
<text text-anchor="middle" x="40.9464" y="-425.3" font-family="Times,serif" font-size="14.00" fill="#000000">(0,3,1)</text>
</g>
<!-- 1&#45;&gt;19 -->
<g id="edge6" class="edge">
<title>1&#45;&gt;19</title>
<path fill="none" stroke="#000000" d="M208.2172,-525.9196C190.5651,-519.4834 168.6309,-510.7329 149.9464,-501 121.661,-486.2659 91.5603,-465.9933 70.1737,-450.7129"/>
<polygon fill="#000000" stroke="#000000" points="72.0142,-447.7249 61.8577,-444.7089 67.9166,-453.4003 72.0142,-447.7249"/>
<text text-anchor="middle" x="161.4464" y="-479.3" font-family="Times,serif" font-size="14.00" fill="#000000">0,2</text>
</g>
<!-- 22 -->
<g id="node20" class="node">
<title>22</title>
<ellipse fill="#ff0000" stroke="#000000" cx="140.9464" cy="-429" rx="40.8928" ry="18"/>
<text text-anchor="middle" x="140.9464" y="-425.3" font-family="Times,serif" font-size="14.00" fill="#000000">(1,2,1)</text>
</g>
<!-- 1&#45;&gt;22 -->
<g id="edge7" class="edge">
<title>1&#45;&gt;22</title>
<path fill="none" stroke="#000000" d="M225.3214,-520.125C208.6629,-502.1339 182.1377,-473.4866 163.2779,-453.1181"/>
<polygon fill="#000000" stroke="#000000" points="165.8239,-450.7162 156.4616,-445.7565 160.6876,-455.4721 165.8239,-450.7162"/>
<text text-anchor="middle" x="217.4464" y="-479.3" font-family="Times,serif" font-size="14.00" fill="#000000">1,1</text>
</g>
<!-- 25 -->
<g id="node23" class="node">
<title>25</title>
<ellipse fill="#ff0000" stroke="#000000" cx="240.9464" cy="-429" rx="40.8928" ry="18"/>
<text text-anchor="middle" x="240.9464" y="-425.3" font-family="Times,serif" font-size="14.00" fill="#000000">(2,1,1)</text>
</g>
<!-- 1&#45;&gt;25 -->
<g id="edge8" class="edge">
<title>1&#45;&gt;25</title>
<path fill="none" stroke="#000000" d="M238.5188,-518.7185C237.8729,-513.0506 237.2663,-506.7765 236.9464,-501 236.0616,-485.0245 236.0616,-480.9755 236.9464,-465 237.0813,-462.563 237.2673,-460.0375 237.4858,-457.5063"/>
<polygon fill="#000000" stroke="#000000" points="240.9958,-457.5826 238.5188,-447.2815 234.0312,-456.879 240.9958,-457.5826"/>
<text text-anchor="middle" x="248.4464" y="-479.3" font-family="Times,serif" font-size="14.00" fill="#000000">2,0</text>
</g>
<!-- 2 -->
<g id="node3" class="node">
<title>2</title>
<ellipse fill="none" stroke="#000000" cx="190.9464" cy="-342" rx="40.8928" ry="18"/>
<text text-anchor="middle" x="190.9464" y="-338.3" font-family="Times,serif" font-size="14.00" fill="#000000">(3,1,0)</text>
</g>
<!-- 23 -->
<g id="node21" class="node">
<title>23</title>
<ellipse fill="#ff0000" stroke="#000000" cx="90.9464" cy="-234" rx="40.8928" ry="18"/>
<text text-anchor="middle" x="90.9464" y="-230.3" font-family="Times,serif" font-size="14.00" fill="#000000">(1,3,1)</text>
</g>
<!-- 2&#45;&gt;23 -->
<g id="edge9" class="edge">
<title>2&#45;&gt;23</title>
<path fill="none" stroke="#000000" d="M175.3214,-325.125C158.6629,-307.1339 132.1377,-278.4866 113.2779,-258.1181"/>
<polygon fill="#000000" stroke="#000000" points="115.8239,-255.7162 106.4616,-250.7565 110.6876,-260.4721 115.8239,-255.7162"/>
<text text-anchor="middle" x="167.4464" y="-284.3" font-family="Times,serif" font-size="14.00" fill="#000000">1,1</text>
</g>
<!-- 26 -->
<g id="node24" class="node">
<title>26</title>
<ellipse fill="none" stroke="#000000" cx="190.9464" cy="-234" rx="40.8928" ry="18"/>
<text text-anchor="middle" x="190.9464" y="-230.3" font-family="Times,serif" font-size="14.00" fill="#000000">(2,2,1)</text>
</g>
<!-- 2&#45;&gt;26 -->
<g id="edge10" class="edge">
<title>2&#45;&gt;26</title>
<path fill="none" stroke="#000000" d="M190.9464,-323.6793C190.9464,-306.821 190.9464,-281.5651 190.9464,-262.147"/>
<polygon fill="#000000" stroke="#000000" points="194.4465,-262.0501 190.9464,-252.0502 187.4465,-262.0502 194.4465,-262.0501"/>
<text text-anchor="middle" x="202.4464" y="-284.3" font-family="Times,serif" font-size="14.00" fill="#000000">2,0</text>
</g>
<!-- 4 -->
<g id="node4" class="node">
<title>4</title>
<ellipse fill="#ff0000" stroke="#000000" cx="309.9464" cy="-483" rx="40.8928" ry="18"/>
<text text-anchor="middle" x="309.9464" y="-479.3" font-family="Times,serif" font-size="14.00" fill="#000000">(2,3,0)</text>
</g>
<!-- 5 -->
<g id="node5" class="node">
<title>5</title>
<ellipse fill="none" stroke="#000000" cx="190.9464" cy="-126" rx="40.8928" ry="18"/>
<text text-anchor="middle" x="190.9464" y="-122.3" font-family="Times,serif" font-size="14.00" fill="#000000">(2,2,0)</text>
</g>
<!-- 29 -->
<g id="node26" class="node">
<title>29</title>
<ellipse fill="none" stroke="#000000" cx="190.9464" cy="-18" rx="40.8928" ry="18"/>
<text text-anchor="middle" x="190.9464" y="-14.3" font-family="Times,serif" font-size="14.00" fill="#000000">(3,1,1)</text>
</g>
<!-- 5&#45;&gt;29 -->
<g id="edge11" class="edge">
<title>5&#45;&gt;29</title>
<path fill="none" stroke="#000000" d="M190.9464,-107.6793C190.9464,-90.821 190.9464,-65.5651 190.9464,-46.147"/>
<polygon fill="#000000" stroke="#000000" points="194.4465,-46.0501 190.9464,-36.0502 187.4465,-46.0502 194.4465,-46.0501"/>
<text text-anchor="middle" x="202.4464" y="-68.3" font-family="Times,serif" font-size="14.00" fill="#000000">2,0</text>
</g>
<!-- 6 -->
<g id="node6" class="node">
<title>6</title>
<ellipse fill="#ff0000" stroke="#000000" cx="382.9464" cy="-126" rx="40.8928" ry="18"/>
<text text-anchor="middle" x="382.9464" y="-122.3" font-family="Times,serif" font-size="14.00" fill="#000000">(2,1,0)</text>
</g>
<!-- 7 -->
<g id="node7" class="node">
<title>7</title>
<ellipse fill="#ff0000" stroke="#000000" cx="315.9464" cy="-342" rx="40.8928" ry="18"/>
<text text-anchor="middle" x="315.9464" y="-338.3" font-family="Times,serif" font-size="14.00" fill="#000000">(2,0,0)</text>
</g>
<!-- 8 -->
<g id="node8" class="node">
<title>8</title>
<ellipse fill="#ff0000" stroke="#000000" cx="286.9464" cy="-72" rx="40.8928" ry="18"/>
<text text-anchor="middle" x="286.9464" y="-68.3" font-family="Times,serif" font-size="14.00" fill="#000000">(1,3,0)</text>
</g>
<!-- 9 -->
<g id="node9" class="node">
<title>9</title>
<ellipse fill="#ff0000" stroke="#000000" cx="482.9464" cy="-126" rx="40.8928" ry="18"/>
<text text-anchor="middle" x="482.9464" y="-122.3" font-family="Times,serif" font-size="14.00" fill="#000000">(1,2,0)</text>
</g>
<!-- 10 -->
<g id="node10" class="node">
<title>10</title>
<ellipse fill="none" stroke="#000000" cx="415.9464" cy="-342" rx="40.8928" ry="18"/>
<text text-anchor="middle" x="415.9464" y="-338.3" font-family="Times,serif" font-size="14.00" fill="#000000">(1,1,0)</text>
</g>
<!-- 27 -->
<g id="node25" class="node">
<title>27</title>
<ellipse fill="#ff0000" stroke="#000000" cx="316.9464" cy="-180" rx="40.8928" ry="18"/>
<text text-anchor="middle" x="316.9464" y="-176.3" font-family="Times,serif" font-size="14.00" fill="#000000">(2,3,1)</text>
</g>
<!-- 10&#45;&gt;27 -->
<g id="edge12" class="edge">
<title>10&#45;&gt;27</title>
<path fill="none" stroke="#000000" d="M395.9729,-325.927C376.8319,-309.4133 348.6068,-281.9482 332.9464,-252 325.8538,-238.4366 321.8964,-221.8423 319.6926,-208.0044"/>
<polygon fill="#000000" stroke="#000000" points="323.1544,-207.4864 318.3263,-198.0556 316.2195,-208.4389 323.1544,-207.4864"/>
<text text-anchor="middle" x="385.4464" y="-284.3" font-family="Times,serif" font-size="14.00" fill="#000000">0,1</text>
</g>
<!-- 11 -->
<g id="node11" class="node">
<title>11</title>
<ellipse fill="#ff0000" stroke="#000000" cx="515.9464" cy="-342" rx="40.8928" ry="18"/>
<text text-anchor="middle" x="515.9464" y="-338.3" font-family="Times,serif" font-size="14.00" fill="#000000">(1,0,0)</text>
</g>
<!-- 12 -->
<g id="node12" class="node">
<title>12</title>
<ellipse fill="none" stroke="#000000" cx="582.9464" cy="-126" rx="40.8928" ry="18"/>
<text text-anchor="middle" x="582.9464" y="-122.3" font-family="Times,serif" font-size="14.00" fill="#000000">(0,3,0)</text>
</g>
<!-- 12&#45;&gt;29 -->
<g id="edge13" class="edge">
<title>12&#45;&gt;29</title>
<path fill="none" stroke="#000000" d="M551.5985,-114.2994C545.4435,-112.1199 539.0142,-109.925 532.9464,-108 428.6505,-74.9131 303.8226,-44.2765 237.5948,-28.7137"/>
<polygon fill="#000000" stroke="#000000" points="238.0154,-25.2176 227.4809,-26.3473 236.4206,-32.0335 238.0154,-25.2176"/>
<text text-anchor="middle" x="480.4464" y="-68.3" font-family="Times,serif" font-size="14.00" fill="#000000">0,1</text>
</g>
<!-- 13 -->
<g id="node13" class="node">
<title>13</title>
<ellipse fill="none" stroke="#000000" cx="615.9464" cy="-342" rx="40.8928" ry="18"/>
<text text-anchor="middle" x="615.9464" y="-338.3" font-family="Times,serif" font-size="14.00" fill="#000000">(0,2,0)</text>
</g>
<!-- 30 -->
<g id="node27" class="node">
<title>30</title>
<ellipse fill="none" stroke="#000000" cx="382.9464" cy="-234" rx="40.8928" ry="18"/>
<text text-anchor="middle" x="382.9464" y="-230.3" font-family="Times,serif" font-size="14.00" fill="#000000">(3,2,1)</text>
</g>
<!-- 13&#45;&gt;30 -->
<g id="edge14" class="edge">
<title>13&#45;&gt;30</title>
<path fill="none" stroke="#000000" d="M584.9579,-330.088C578.7142,-327.9026 572.1602,-325.7595 565.9464,-324 528.3732,-313.3607 515.5641,-322.0098 479.9464,-306 452.9522,-293.8664 426.2436,-273.2316 407.7084,-257.1549"/>
<polygon fill="#000000" stroke="#000000" points="409.8472,-254.3737 400.0423,-250.3595 405.2039,-259.612 409.8472,-254.3737"/>
<text text-anchor="middle" x="491.4464" y="-284.3" font-family="Times,serif" font-size="14.00" fill="#000000">0,1</text>
</g>
<!-- 14 -->
<g id="node14" class="node">
<title>14</title>
<ellipse fill="none" stroke="#000000" cx="552.9464" cy="-288" rx="40.8928" ry="18"/>
<text text-anchor="middle" x="552.9464" y="-284.3" font-family="Times,serif" font-size="14.00" fill="#000000">(0,1,0)</text>
</g>
<!-- 18&#45;&gt;1 -->
<g id="edge15" class="edge">
<title>18&#45;&gt;1</title>
<path fill="none" stroke="#000000" d="M247.5893,-626.6793C246.3405,-609.821 244.4697,-584.5651 243.0313,-565.147"/>
<polygon fill="#000000" stroke="#000000" points="246.5127,-564.7643 242.2834,-555.0502 239.5318,-565.2814 246.5127,-564.7643"/>
<text text-anchor="middle" x="258.4464" y="-587.3" font-family="Times,serif" font-size="14.00" fill="#000000">0,1</text>
</g>
<!-- 19&#45;&gt;2 -->
<g id="edge16" class="edge">
<title>19&#45;&gt;2</title>
<path fill="none" stroke="#000000" d="M65.7158,-414.6337C90.6857,-400.1512 129.4033,-377.695 157.1766,-361.5865"/>
<polygon fill="#000000" stroke="#000000" points="159.2458,-364.4325 166.1401,-356.3876 155.7338,-358.3772 159.2458,-364.4325"/>
<text text-anchor="middle" x="136.4464" y="-381.8" font-family="Times,serif" font-size="14.00" fill="#000000">0,1</text>
</g>
<!-- 21&#45;&gt;4 -->
<g id="edge17" class="edge">
<title>21&#45;&gt;4</title>
<path fill="none" stroke="#000000" d="M434.3336,-627.9694C409.7875,-599.3616 360.1626,-541.5254 331.5698,-508.2014"/>
<polygon fill="#000000" stroke="#000000" points="333.9497,-505.6002 324.7817,-500.29 328.6372,-510.1585 333.9497,-505.6002"/>
<text text-anchor="middle" x="428.4464" y="-587.3" font-family="Times,serif" font-size="14.00" fill="#000000">0,1</text>
</g>
<!-- 26&#45;&gt;5 -->
<g id="edge18" class="edge">
<title>26&#45;&gt;5</title>
<path fill="none" stroke="#000000" d="M190.9464,-215.6793C190.9464,-198.821 190.9464,-173.5651 190.9464,-154.147"/>
<polygon fill="#000000" stroke="#000000" points="194.4465,-154.0501 190.9464,-144.0502 187.4465,-154.0502 194.4465,-154.0501"/>
<text text-anchor="middle" x="202.4464" y="-176.3" font-family="Times,serif" font-size="14.00" fill="#000000">1,1</text>
</g>
<!-- 26&#45;&gt;8 -->
<g id="edge19" class="edge">
<title>26&#45;&gt;8</title>
<path fill="none" stroke="#000000" d="M204.6438,-216.7794C209.0726,-210.9439 213.8849,-204.3051 217.9464,-198 239.1438,-165.0928 260.2847,-125.1756 273.471,-99.2126"/>
<polygon fill="#000000" stroke="#000000" points="276.7443,-100.4944 278.1188,-89.989 270.4931,-97.3443 276.7443,-100.4944"/>
<text text-anchor="middle" x="250.4464" y="-176.3" font-family="Times,serif" font-size="14.00" fill="#000000">0,2</text>
</g>
<!-- 30&#45;&gt;6 -->
<g id="edge20" class="edge">
<title>30&#45;&gt;6</title>
<path fill="none" stroke="#000000" d="M382.9464,-215.6793C382.9464,-198.821 382.9464,-173.5651 382.9464,-154.147"/>
<polygon fill="#000000" stroke="#000000" points="386.4465,-154.0501 382.9464,-144.0502 379.4465,-154.0502 386.4465,-154.0501"/>
<text text-anchor="middle" x="394.4464" y="-176.3" font-family="Times,serif" font-size="14.00" fill="#000000">2,0</text>
</g>
<!-- 30&#45;&gt;9 -->
<g id="edge21" class="edge">
<title>30&#45;&gt;9</title>
<path fill="none" stroke="#000000" d="M398.5714,-217.125C415.2298,-199.1339 441.7551,-170.4866 460.6148,-150.1181"/>
<polygon fill="#000000" stroke="#000000" points="463.2051,-152.4721 467.4311,-142.7565 458.0688,-147.7162 463.2051,-152.4721"/>
<text text-anchor="middle" x="459.4464" y="-176.3" font-family="Times,serif" font-size="14.00" fill="#000000">1,1</text>
</g>
<!-- 30&#45;&gt;12 -->
<g id="edge22" class="edge">
<title>30&#45;&gt;12</title>
<path fill="none" stroke="#000000" d="M415.6283,-223.152C433.5545,-216.725 455.9346,-207.9097 474.9464,-198 503.0475,-183.3526 532.8646,-163.0714 554.033,-147.7657"/>
<polygon fill="#000000" stroke="#000000" points="556.2549,-150.4771 562.263,-141.7505 552.1243,-144.8256 556.2549,-150.4771"/>
<text text-anchor="middle" x="543.4464" y="-176.3" font-family="Times,serif" font-size="14.00" fill="#000000">0,2</text>
</g>
<!-- 31 -->
<g id="node28" class="node">
<title>31</title>
<ellipse fill="none" stroke="#000000" cx="340.9464" cy="-429" rx="40.8928" ry="18"/>
<text text-anchor="middle" x="340.9464" y="-425.3" font-family="Times,serif" font-size="14.00" fill="#000000">(3,3,1)</text>
</g>
<!-- 31&#45;&gt;7 -->
<g id="edge23" class="edge">
<title>31&#45;&gt;7</title>
<path fill="none" stroke="#000000" d="M335.7664,-410.9735C332.3473,-399.0751 327.8,-383.2508 323.9236,-369.7606"/>
<polygon fill="#000000" stroke="#000000" points="327.2455,-368.6478 321.1197,-360.0034 320.5177,-370.5811 327.2455,-368.6478"/>
<text text-anchor="middle" x="341.4464" y="-381.8" font-family="Times,serif" font-size="14.00" fill="#000000">2,0</text>
</g>
<!-- 31&#45;&gt;10 -->
<g id="edge24" class="edge">
<title>31&#45;&gt;10</title>
<path fill="none" stroke="#000000" d="M355.764,-411.8116C366.9301,-398.8589 382.394,-380.9208 394.8504,-366.4714"/>
<polygon fill="#000000" stroke="#000000" points="397.5363,-368.7161 401.4148,-358.8567 392.2344,-364.1455 397.5363,-368.7161"/>
<text text-anchor="middle" x="394.4464" y="-381.8" font-family="Times,serif" font-size="14.00" fill="#000000">1,1</text>
</g>
<!-- 31&#45;&gt;11 -->
<g id="edge25" class="edge">
<title>31&#45;&gt;11</title>
<path fill="none" stroke="#000000" d="M368.2901,-415.4063C398.2129,-400.5303 446.3275,-376.6105 479.4545,-360.1417"/>
<polygon fill="#000000" stroke="#000000" points="481.3982,-363.0841 488.7946,-355.4983 478.282,-356.8159 481.3982,-363.0841"/>
<text text-anchor="middle" x="450.4464" y="-381.8" font-family="Times,serif" font-size="14.00" fill="#000000">1,0</text>
</g>
<!-- 31&#45;&gt;13 -->
<g id="edge26" class="edge">
<title>31&#45;&gt;13</title>
<path fill="none" stroke="#000000" d="M375.8068,-419.3467C400.9389,-412.2932 435.6298,-402.364 465.9464,-393 510.6638,-379.1879 521.7025,-375.2611 565.9464,-360 568.8191,-359.0091 571.7802,-357.9752 574.7596,-356.9258"/>
<polygon fill="#000000" stroke="#000000" points="575.9992,-360.1998 584.2511,-353.5549 573.6564,-353.6035 575.9992,-360.1998"/>
<text text-anchor="middle" x="523.4464" y="-381.8" font-family="Times,serif" font-size="14.00" fill="#000000">0,2</text>
</g>
<!-- 31&#45;&gt;14 -->
<g id="edge27" class="edge">
<title>31&#45;&gt;14</title>
<path fill="none" stroke="#000000" d="M381.6506,-426.6917C460.9802,-421.2359 631.5413,-404.4875 665.9464,-360 675.7346,-347.3433 675.3881,-336.9172 665.9464,-324 657.8576,-312.9337 627.6147,-303.6402 600.451,-297.2691"/>
<polygon fill="#000000" stroke="#000000" points="601.1542,-293.8399 590.6294,-295.0562 599.6155,-300.6687 601.1542,-293.8399"/>
<text text-anchor="middle" x="653.4464" y="-381.8" font-family="Times,serif" font-size="14.00" fill="#000000">0,1</text>
</g>
</g>
</svg>
