<?xml version="1.0" encoding="UTF-8" standalone="no"?>
<!DOCTYPE svg PUBLIC "-//W3C//DTD SVG 1.1//EN"
 "http://www.w3.org/Graphics/SVG/1.1/DTD/svg11.dtd">
<!-- Generated by graphviz version 2.40.1 (0)
 -->
<!-- Title: %3 Pages: 1 -->
<svg width="687pt" height="1106pt"
 viewBox="0.00 0.00 686.89 1106.00" xmlns="http://www.w3.org/2000/svg" xmlns:xlink="http://www.w3.org/1999/xlink">
<g id="graph0" class="graph" transform="scale(1 1) rotate(0) translate(4 1102)">
<title>%3</title>
<polygon fill="#ffffff" stroke="transparent" points="-4,4 -4,-1102 682.8927,-1102 682.8927,4 -4,4"/>
<!-- 0 -->
<g id="node1" class="node">
<title>0</title>
<ellipse fill="none" stroke="#000000" cx="537.9464" cy="-18" rx="40.8928" ry="18"/>
<text text-anchor="middle" x="537.9464" y="-14.3" font-family="Times,serif" font-size="14.00" fill="#000000">(3,3,0)</text>
</g>
<!-- 1 -->
<g id="node2" class="node">
<title>1</title>
<ellipse fill="none" stroke="#000000" cx="537.9464" cy="-213" rx="40.8928" ry="18"/>
<text text-anchor="middle" x="537.9464" y="-209.3" font-family="Times,serif" font-size="14.00" fill="#000000">(3,2,0)</text>
</g>
<!-- 18 -->
<g id="node15" class="node">
<title>18</title>
<ellipse fill="none" stroke="#000000" cx="471.9464" cy="-72" rx="40.8928" ry="18"/>
<text text-anchor="middle" x="471.9464" y="-68.3" font-family="Times,serif" font-size="14.00" fill="#000000">(0,2,1)</text>
</g>
<!-- 1&#45;&gt;18 -->
<g id="edge1" class="edge">
<title>1&#45;&gt;18</title>
<path fill="none" stroke="#000000" d="M524.9141,-195.8775C520.4411,-189.9337 515.4328,-183.204 510.9464,-177 500.4704,-162.5135 495.1328,-160.3695 487.9464,-144 481.8946,-130.2151 478.0268,-113.9057 475.6134,-100.2982"/>
<polygon fill="#000000" stroke="#000000" points="479.012,-99.3855 473.9757,-90.0642 472.0999,-100.4917 479.012,-99.3855"/>
<text text-anchor="middle" x="522.4464" y="-165.8" font-family="Times,serif" font-size="14.00" fill="#000000">0,1</text>
</g>
<!-- 21 -->
<g id="node17" class="node">
<title>21</title>
<ellipse fill="none" stroke="#000000" cx="537.9464" cy="-126" rx="40.8928" ry="18"/>
<text text-anchor="middle" x="537.9464" y="-122.3" font-family="Times,serif" font-size="14.00" fill="#000000">(1,1,1)</text>
</g>
<!-- 1&#45;&gt;21 -->
<g id="edge2" class="edge">
<title>1&#45;&gt;21</title>
<path fill="none" stroke="#000000" d="M537.9464,-194.9735C537.9464,-183.1918 537.9464,-167.5607 537.9464,-154.1581"/>
<polygon fill="#000000" stroke="#000000" points="541.4465,-154.0033 537.9464,-144.0034 534.4465,-154.0034 541.4465,-154.0033"/>
<text text-anchor="middle" x="549.4464" y="-165.8" font-family="Times,serif" font-size="14.00" fill="#000000">1,0</text>
</g>
<!-- 2 -->
<g id="node3" class="node">
<title>2</title>
<ellipse fill="none" stroke="#000000" cx="539.9464" cy="-408" rx="40.8928" ry="18"/>
<text text-anchor="middle" x="539.9464" y="-404.3" font-family="Times,serif" font-size="14.00" fill="#000000">(3,1,0)</text>
</g>
<!-- 19 -->
<g id="node16" class="node">
<title>19</title>
<ellipse fill="none" stroke="#000000" cx="537.9464" cy="-300" rx="40.8928" ry="18"/>
<text text-anchor="middle" x="537.9464" y="-296.3" font-family="Times,serif" font-size="14.00" fill="#000000">(0,3,1)</text>
</g>
<!-- 2&#45;&gt;19 -->
<g id="edge3" class="edge">
<title>2&#45;&gt;19</title>
<path fill="none" stroke="#000000" d="M539.6071,-389.6793C539.2949,-372.821 538.8272,-347.5651 538.4676,-328.147"/>
<polygon fill="#000000" stroke="#000000" points="541.9653,-327.9836 538.2806,-318.0502 534.9665,-328.1133 541.9653,-327.9836"/>
<text text-anchor="middle" x="550.4464" y="-350.3" font-family="Times,serif" font-size="14.00" fill="#000000">0,1</text>
</g>
<!-- 4 -->
<g id="node4" class="node">
<title>4</title>
<ellipse fill="#ff0000" stroke="#000000" cx="637.9464" cy="-18" rx="40.8928" ry="18"/>
<text text-anchor="middle" x="637.9464" y="-14.3" font-family="Times,serif" font-size="14.00" fill="#000000">(2,3,0)</text>
</g>
<!-- 5 -->
<g id="node5" class="node">
<title>5</title>
<ellipse fill="none" stroke="#000000" cx="475.9464" cy="-603" rx="40.8928" ry="18"/>
<text text-anchor="middle" x="475.9464" y="-599.3" font-family="Times,serif" font-size="14.00" fill="#000000">(2,2,0)</text>
</g>
<!-- 22 -->
<g id="node18" class="node">
<title>22</title>
<ellipse fill="#ff0000" stroke="#000000" cx="363.9464" cy="-462" rx="40.8928" ry="18"/>
<text text-anchor="middle" x="363.9464" y="-458.3" font-family="Times,serif" font-size="14.00" fill="#000000">(1,2,1)</text>
</g>
<!-- 5&#45;&gt;22 -->
<g id="edge4" class="edge">
<title>5&#45;&gt;22</title>
<path fill="none" stroke="#000000" d="M436.146,-598.4703C411.0301,-593.9343 379.0807,-584.9063 355.9464,-567 330.6972,-547.4568 325.5843,-528.2007 335.9464,-498 337.2673,-494.15 339.1868,-490.3946 341.4112,-486.851"/>
<polygon fill="#000000" stroke="#000000" points="344.3903,-488.7037 347.4013,-478.5457 338.7129,-484.6089 344.3903,-488.7037"/>
<text text-anchor="middle" x="367.4464" y="-555.8" font-family="Times,serif" font-size="14.00" fill="#000000">0,1</text>
</g>
<!-- 23 -->
<g id="node19" class="node">
<title>23</title>
<ellipse fill="#ff0000" stroke="#000000" cx="472.9464" cy="-354" rx="40.8928" ry="18"/>
<text text-anchor="middle" x="472.9464" y="-350.3" font-family="Times,serif" font-size="14.00" fill="#000000">(1,3,1)</text>
</g>
<!-- 5&#45;&gt;23 -->
<g id="edge5" class="edge">
<title>5&#45;&gt;23</title>
<path fill="none" stroke="#000000" d="M442.9119,-592.1302C417.0942,-581.6874 382.9855,-563.1358 366.9464,-534 359.2303,-519.9835 357.8788,-511.1825 366.9464,-498 379.6231,-479.5705 397.5691,-495.2358 413.9464,-480 442.4868,-453.4488 458.4903,-410.3002 466.4214,-382.032"/>
<polygon fill="#000000" stroke="#000000" points="469.9034,-382.5545 469.0751,-371.9921 463.1358,-380.7656 469.9034,-382.5545"/>
<text text-anchor="middle" x="378.4464" y="-512.3" font-family="Times,serif" font-size="14.00" fill="#000000">0,2</text>
</g>
<!-- 25 -->
<g id="node20" class="node">
<title>25</title>
<ellipse fill="#ff0000" stroke="#000000" cx="439.9464" cy="-516" rx="40.8928" ry="18"/>
<text text-anchor="middle" x="439.9464" y="-512.3" font-family="Times,serif" font-size="14.00" fill="#000000">(2,1,1)</text>
</g>
<!-- 5&#45;&gt;25 -->
<g id="edge6" class="edge">
<title>5&#45;&gt;25</title>
<path fill="none" stroke="#000000" d="M468.4871,-584.9735C463.5154,-572.9585 456.8871,-556.9401 451.2696,-543.3646"/>
<polygon fill="#000000" stroke="#000000" points="454.4537,-541.9053 447.396,-534.0034 447.9856,-544.5818 454.4537,-541.9053"/>
<text text-anchor="middle" x="471.4464" y="-555.8" font-family="Times,serif" font-size="14.00" fill="#000000">1,0</text>
</g>
<!-- 26 -->
<g id="node21" class="node">
<title>26</title>
<ellipse fill="none" stroke="#000000" cx="539.9464" cy="-516" rx="40.8928" ry="18"/>
<text text-anchor="middle" x="539.9464" y="-512.3" font-family="Times,serif" font-size="14.00" fill="#000000">(2,2,1)</text>
</g>
<!-- 5&#45;&gt;26 -->
<g id="edge7" class="edge">
<title>5&#45;&gt;26</title>
<path fill="none" stroke="#000000" d="M488.5907,-585.8116C497.8823,-573.1808 510.6614,-555.8092 521.1473,-541.5549"/>
<polygon fill="#000000" stroke="#000000" points="524.2219,-543.2819 527.3283,-533.1527 518.5833,-539.1339 524.2219,-543.2819"/>
<text text-anchor="middle" x="522.4464" y="-555.8" font-family="Times,serif" font-size="14.00" fill="#000000">1,1</text>
</g>
<!-- 6 -->
<g id="node6" class="node">
<title>6</title>
<ellipse fill="#ff0000" stroke="#000000" cx="275.9464" cy="-777" rx="40.8928" ry="18"/>
<text text-anchor="middle" x="275.9464" y="-773.3" font-family="Times,serif" font-size="14.00" fill="#000000">(2,1,0)</text>
</g>
<!-- 7 -->
<g id="node7" class="node">
<title>7</title>
<ellipse fill="#ff0000" stroke="#000000" cx="40.9464" cy="-993" rx="40.8928" ry="18"/>
<text text-anchor="middle" x="40.9464" y="-989.3" font-family="Times,serif" font-size="14.00" fill="#000000">(2,0,0)</text>
</g>
<!-- 8 -->
<g id="node8" class="node">
<title>8</title>
<ellipse fill="#ff0000" stroke="#000000" cx="575.9464" cy="-603" rx="40.8928" ry="18"/>
<text text-anchor="middle" x="575.9464" y="-599.3" font-family="Times,serif" font-size="14.00" fill="#000000">(1,3,0)</text>
</g>
<!-- 9 -->
<g id="node9" class="node">
<title>9</title>
<ellipse fill="#ff0000" stroke="#000000" cx="375.9464" cy="-777" rx="40.8928" ry="18"/>
<text text-anchor="middle" x="375.9464" y="-773.3" font-family="Times,serif" font-size="14.00" fill="#000000">(1,2,0)</text>
</g>
<!-- 10 -->
<g id="node10" class="node">
<title>10</title>
<ellipse fill="none" stroke="#000000" cx="140.9464" cy="-993" rx="40.8928" ry="18"/>
<text text-anchor="middle" x="140.9464" y="-989.3" font-family="Times,serif" font-size="14.00" fill="#000000">(1,1,0)</text>
</g>
<!-- 27 -->
<g id="node22" class="node">
<title>27</title>
<ellipse fill="#ff0000" stroke="#000000" cx="209.9464" cy="-831" rx="40.8928" ry="18"/>
<text text-anchor="middle" x="209.9464" y="-827.3" font-family="Times,serif" font-size="14.00" fill="#000000">(2,3,1)</text>
</g>
<!-- 10&#45;&gt;27 -->
<g id="edge8" class="edge">
<title>10&#45;&gt;27</title>
<path fill="none" stroke="#000000" d="M148.5942,-975.0442C160.614,-946.8238 184.0141,-891.8846 198.1854,-858.6128"/>
<polygon fill="#000000" stroke="#000000" points="201.5657,-859.608 202.2643,-849.0362 195.1255,-856.8649 201.5657,-859.608"/>
<text text-anchor="middle" x="183.4464" y="-935.3" font-family="Times,serif" font-size="14.00" fill="#000000">0,1</text>
</g>
<!-- 11 -->
<g id="node11" class="node">
<title>11</title>
<ellipse fill="#ff0000" stroke="#000000" cx="240.9464" cy="-993" rx="40.8928" ry="18"/>
<text text-anchor="middle" x="240.9464" y="-989.3" font-family="Times,serif" font-size="14.00" fill="#000000">(1,0,0)</text>
</g>
<!-- 12 -->
<g id="node12" class="node">
<title>12</title>
<ellipse fill="none" stroke="#000000" cx="475.9464" cy="-777" rx="40.8928" ry="18"/>
<text text-anchor="middle" x="475.9464" y="-773.3" font-family="Times,serif" font-size="14.00" fill="#000000">(0,3,0)</text>
</g>
<!-- 29 -->
<g id="node23" class="node">
<title>29</title>
<ellipse fill="none" stroke="#000000" cx="475.9464" cy="-690" rx="40.8928" ry="18"/>
<text text-anchor="middle" x="475.9464" y="-686.3" font-family="Times,serif" font-size="14.00" fill="#000000">(3,1,1)</text>
</g>
<!-- 12&#45;&gt;29 -->
<g id="edge9" class="edge">
<title>12&#45;&gt;29</title>
<path fill="none" stroke="#000000" d="M475.9464,-758.9735C475.9464,-747.1918 475.9464,-731.5607 475.9464,-718.1581"/>
<polygon fill="#000000" stroke="#000000" points="479.4465,-718.0033 475.9464,-708.0034 472.4465,-718.0034 479.4465,-718.0033"/>
<text text-anchor="middle" x="487.4464" y="-729.8" font-family="Times,serif" font-size="14.00" fill="#000000">0,1</text>
</g>
<!-- 13 -->
<g id="node13" class="node">
<title>13</title>
<ellipse fill="none" stroke="#000000" cx="340.9464" cy="-993" rx="40.8928" ry="18"/>
<text text-anchor="middle" x="340.9464" y="-989.3" font-family="Times,serif" font-size="14.00" fill="#000000">(0,2,0)</text>
</g>
<!-- 30 -->
<g id="node24" class="node">
<title>30</title>
<ellipse fill="none" stroke="#000000" cx="275.9464" cy="-885" rx="40.8928" ry="18"/>
<text text-anchor="middle" x="275.9464" y="-881.3" font-family="Times,serif" font-size="14.00" fill="#000000">(3,2,1)</text>
</g>
<!-- 13&#45;&gt;30 -->
<g id="edge10" class="edge">
<title>13&#45;&gt;30</title>
<path fill="none" stroke="#000000" d="M319.8311,-977.5046C313.0593,-971.6913 306.0106,-964.6279 300.9464,-957 292.1398,-943.7353 286.0888,-927.0333 282.1485,-913.0559"/>
<polygon fill="#000000" stroke="#000000" points="285.4382,-911.799 279.5361,-903.0004 278.6631,-913.5592 285.4382,-911.799"/>
<text text-anchor="middle" x="312.4464" y="-935.3" font-family="Times,serif" font-size="14.00" fill="#000000">0,1</text>
</g>
<!-- 14 -->
<g id="node14" class="node">
<title>14</title>
<ellipse fill="none" stroke="#000000" cx="373.9464" cy="-939" rx="40.8928" ry="18"/>
<text text-anchor="middle" x="373.9464" y="-935.3" font-family="Times,serif" font-size="14.00" fill="#000000">(0,1,0)</text>
</g>
<!-- 19&#45;&gt;1 -->
<g id="edge11" class="edge">
<title>19&#45;&gt;1</title>
<path fill="none" stroke="#000000" d="M537.9464,-281.9735C537.9464,-270.1918 537.9464,-254.5607 537.9464,-241.1581"/>
<polygon fill="#000000" stroke="#000000" points="541.4465,-241.0033 537.9464,-231.0034 534.4465,-241.0034 541.4465,-241.0033"/>
<text text-anchor="middle" x="549.4464" y="-252.8" font-family="Times,serif" font-size="14.00" fill="#000000">0,2</text>
</g>
<!-- 21&#45;&gt;0 -->
<g id="edge12" class="edge">
<title>21&#45;&gt;0</title>
<path fill="none" stroke="#000000" d="M537.9464,-107.6793C537.9464,-90.821 537.9464,-65.5651 537.9464,-46.147"/>
<polygon fill="#000000" stroke="#000000" points="541.4465,-46.0501 537.9464,-36.0502 534.4465,-46.0502 541.4465,-46.0501"/>
<text text-anchor="middle" x="549.4464" y="-68.3" font-family="Times,serif" font-size="14.00" fill="#000000">1,1</text>
</g>
<!-- 21&#45;&gt;4 -->
<g id="edge13" class="edge">
<title>21&#45;&gt;4</title>
<path fill="none" stroke="#000000" d="M553.5714,-109.125C570.2298,-91.1339 596.7551,-62.4866 615.6148,-42.1181"/>
<polygon fill="#000000" stroke="#000000" points="618.2051,-44.4721 622.4311,-34.7565 613.0688,-39.7162 618.2051,-44.4721"/>
<text text-anchor="middle" x="613.4464" y="-68.3" font-family="Times,serif" font-size="14.00" fill="#000000">0,1</text>
</g>
<!-- 26&#45;&gt;2 -->
<g id="edge14" class="edge">
<title>26&#45;&gt;2</title>
<path fill="none" stroke="#000000" d="M539.9464,-497.6793C539.9464,-480.821 539.9464,-455.5651 539.9464,-436.147"/>
<polygon fill="#000000" stroke="#000000" points="543.4465,-436.0501 539.9464,-426.0502 536.4465,-436.0502 543.4465,-436.0501"/>
<text text-anchor="middle" x="551.4464" y="-458.3" font-family="Times,serif" font-size="14.00" fill="#000000">2,0</text>
</g>
<!-- 29&#45;&gt;5 -->
<g id="edge15" class="edge">
<title>29&#45;&gt;5</title>
<path fill="none" stroke="#000000" d="M475.9464,-671.9735C475.9464,-660.1918 475.9464,-644.5607 475.9464,-631.1581"/>
<polygon fill="#000000" stroke="#000000" points="479.4465,-631.0033 475.9464,-621.0034 472.4465,-631.0034 479.4465,-631.0033"/>
<text text-anchor="middle" x="487.4464" y="-642.8" font-family="Times,serif" font-size="14.00" fill="#000000">2,0</text>
</g>
<!-- 29&#45;&gt;8 -->
<g id="edge16" class="edge">
<title>29&#45;&gt;8</title>
<path fill="none" stroke="#000000" d="M494.7556,-673.636C510.1199,-660.2691 532.0264,-641.2104 549.2129,-626.2581"/>
<polygon fill="#000000" stroke="#000000" points="551.9743,-628.4949 557.2215,-619.2907 547.3797,-623.2138 551.9743,-628.4949"/>
<text text-anchor="middle" x="542.4464" y="-642.8" font-family="Times,serif" font-size="14.00" fill="#000000">1,1</text>
</g>
<!-- 30&#45;&gt;6 -->
<g id="edge17" class="edge">
<title>30&#45;&gt;6</title>
<path fill="none" stroke="#000000" d="M275.9464,-866.6793C275.9464,-849.821 275.9464,-824.5651 275.9464,-805.147"/>
<polygon fill="#000000" stroke="#000000" points="279.4465,-805.0501 275.9464,-795.0502 272.4465,-805.0502 279.4465,-805.0501"/>
<text text-anchor="middle" x="287.4464" y="-827.3" font-family="Times,serif" font-size="14.00" fill="#000000">2,0</text>
</g>
<!-- 30&#45;&gt;9 -->
<g id="edge18" class="edge">
<title>30&#45;&gt;9</title>
<path fill="none" stroke="#000000" d="M291.5714,-868.125C308.2298,-850.1339 334.7551,-821.4866 353.6148,-801.1181"/>
<polygon fill="#000000" stroke="#000000" points="356.2051,-803.4721 360.4311,-793.7565 351.0688,-798.7162 356.2051,-803.4721"/>
<text text-anchor="middle" x="352.4464" y="-827.3" font-family="Times,serif" font-size="14.00" fill="#000000">1,1</text>
</g>
<!-- 30&#45;&gt;12 -->
<g id="edge19" class="edge">
<title>30&#45;&gt;12</title>
<path fill="none" stroke="#000000" d="M308.6283,-874.152C326.5545,-867.725 348.9346,-858.9097 367.9464,-849 396.0475,-834.3526 425.8646,-814.0714 447.033,-798.7657"/>
<polygon fill="#000000" stroke="#000000" points="449.2549,-801.4771 455.263,-792.7505 445.1243,-795.8256 449.2549,-801.4771"/>
<text text-anchor="middle" x="436.4464" y="-827.3" font-family="Times,serif" font-size="14.00" fill="#000000">0,2</text>
</g>
<!-- 31 -->
<g id="node25" class="node">
<title>31</title>
<ellipse fill="none" stroke="#000000" cx="90.9464" cy="-1080" rx="40.8928" ry="18"/>
<text text-anchor="middle" x="90.9464" y="-1076.3" font-family="Times,serif" font-size="14.00" fill="#000000">(3,3,1)</text>
</g>
<!-- 31&#45;&gt;7 -->
<g id="edge20" class="edge">
<title>31&#45;&gt;7</title>
<path fill="none" stroke="#000000" d="M80.8281,-1062.3943C73.7121,-1050.0124 64.0669,-1033.2297 56.0443,-1019.2704"/>
<polygon fill="#000000" stroke="#000000" points="59.067,-1017.5057 51.0496,-1010.5796 52.9979,-1020.9937 59.067,-1017.5057"/>
<text text-anchor="middle" x="80.4464" y="-1032.8" font-family="Times,serif" font-size="14.00" fill="#000000">2,0</text>
</g>
<!-- 31&#45;&gt;10 -->
<g id="edge21" class="edge">
<title>31&#45;&gt;10</title>
<path fill="none" stroke="#000000" d="M101.0646,-1062.3943C108.1806,-1050.0124 117.8259,-1033.2297 125.8484,-1019.2704"/>
<polygon fill="#000000" stroke="#000000" points="128.8948,-1020.9937 130.8432,-1010.5796 122.8257,-1017.5057 128.8948,-1020.9937"/>
<text text-anchor="middle" x="130.4464" y="-1032.8" font-family="Times,serif" font-size="14.00" fill="#000000">1,1</text>
</g>
<!-- 31&#45;&gt;11 -->
<g id="edge22" class="edge">
<title>31&#45;&gt;11</title>
<path fill="none" stroke="#000000" d="M115.7158,-1065.6337C140.6857,-1051.1512 179.4033,-1028.695 207.1766,-1012.5865"/>
<polygon fill="#000000" stroke="#000000" points="209.2458,-1015.4325 216.1401,-1007.3876 205.7338,-1009.3772 209.2458,-1015.4325"/>
<text text-anchor="middle" x="186.4464" y="-1032.8" font-family="Times,serif" font-size="14.00" fill="#000000">1,0</text>
</g>
<!-- 31&#45;&gt;13 -->
<g id="edge23" class="edge">
<title>31&#45;&gt;13</title>
<path fill="none" stroke="#000000" d="M124.5729,-1069.4606C146.6414,-1062.4536 176.0959,-1052.9307 201.9464,-1044 235.1616,-1032.525 272.5419,-1018.7614 300.1662,-1008.4262"/>
<polygon fill="#000000" stroke="#000000" points="301.7425,-1011.5731 309.8764,-1004.7842 299.2842,-1005.019 301.7425,-1011.5731"/>
<text text-anchor="middle" x="256.4464" y="-1032.8" font-family="Times,serif" font-size="14.00" fill="#000000">0,2</text>
</g>
<!-- 31&#45;&gt;14 -->
<g id="edge24" class="edge">
<title>31&#45;&gt;14</title>
<path fill="none" stroke="#000000" d="M131.4168,-1076.9277C205.8699,-1070.3277 359.8104,-1051.9454 390.9464,-1011 400.8312,-998.0009 396.7034,-980.1531 390.0438,-965.4798"/>
<polygon fill="#000000" stroke="#000000" points="393.0712,-963.7112 385.4238,-956.3785 386.8294,-966.8797 393.0712,-963.7112"/>
<text text-anchor="middle" x="376.4464" y="-1032.8" font-family="Times,serif" font-size="14.00" fill="#000000">0,1</text>
</g>
</g>
</svg>
